<?xml version="1.0" encoding="UTF-8"?>
<svg xmlns="http://www.w3.org/2000/svg" xmlns:xlink="http://www.w3.org/1999/xlink" width="79px" height="31px" viewBox="0 0 79 31" version="1.1">
<g id="surface1">
<path style=" stroke:none;fill-rule:nonzero;fill:rgb(0.784314%,0.784314%,0.784314%);fill-opacity:1;" d="M 38.382812 1.003906 C 38.585938 1.367188 38.9375 1.625 39.101562 2.015625 C 39.371094 2.460938 39.210938 3.046875 39.535156 3.472656 C 39.6875 3.6875 39.824219 3.914062 39.941406 4.152344 C 40.269531 3.824219 40.605469 3.476562 40.769531 3.027344 C 40.941406 2.59375 40.996094 2.128906 41.097656 1.675781 C 41.214844 1.320312 41.621094 1.214844 41.957031 1.230469 C 41.808594 1.871094 41.96875 2.535156 42.203125 3.132812 C 42.515625 3.925781 42.726562 4.769531 42.746094 5.625 C 42.753906 5.867188 42.683594 6.128906 42.816406 6.351562 C 43.03125 6.753906 43.429688 7.011719 43.707031 7.367188 C 45.164062 9.144531 46.023438 11.324219 46.644531 13.515625 C 44.5625 14.277344 42.484375 15.054688 40.402344 15.816406 C 40.160156 14.554688 39.359375 13.480469 38.398438 12.65625 C 37.640625 13.136719 36.976562 13.835938 36.070312 14.023438 C 35.503906 14.164062 34.953125 13.878906 34.515625 13.542969 C 34.332031 13.382812 34.074219 13.421875 33.867188 13.320312 C 33.65625 13.242188 33.507812 13.074219 33.34375 12.929688 C 33.191406 12.835938 33.015625 12.769531 32.898438 12.625 C 32.667969 12.363281 32.605469 12 32.558594 11.664062 C 32.46875 11 32.546875 10.332031 32.613281 9.671875 C 32.355469 9.445312 32.0625 9.066406 32.285156 8.722656 C 32.542969 8.214844 33.109375 8.015625 33.628906 7.894531 C 34.214844 7.726562 34.804688 7.554688 35.347656 7.269531 C 35.574219 6.945312 35.507812 6.472656 35.804688 6.183594 C 36.457031 5.546875 37.34375 5.253906 38.1875 4.96875 C 38.324219 4.632812 38.460938 4.285156 38.457031 3.917969 C 38.4375 3.476562 38.304688 3.050781 38.304688 2.609375 C 38.273438 2.070312 38.339844 1.539062 38.382812 1.003906 M 41.480469 2.074219 C 41.441406 2.097656 41.359375 2.152344 41.320312 2.175781 C 41.324219 2.324219 41.398438 2.414062 41.550781 2.414062 C 41.566406 2.292969 41.558594 2.171875 41.480469 2.074219 M 41.429688 3.246094 C 41.347656 3.453125 41.296875 3.671875 41.222656 3.882812 C 41 4.191406 40.691406 4.445312 40.566406 4.816406 C 40.433594 5.117188 40.523438 5.449219 40.570312 5.757812 C 40.476562 5.84375 40.347656 5.839844 40.230469 5.847656 C 40.085938 5.550781 40.074219 5.214844 40.003906 4.898438 C 40.015625 5.339844 40.035156 5.785156 40.003906 6.226562 C 39.910156 6.238281 39.8125 6.25 39.71875 6.265625 C 39.535156 5.933594 39.578125 5.554688 39.574219 5.191406 C 38.722656 5.296875 37.878906 5.488281 37.09375 5.832031 C 36.722656 6.019531 36.34375 6.226562 36.074219 6.542969 C 35.917969 6.867188 35.867188 7.226562 35.765625 7.566406 C 35.070312 7.914062 34.328125 8.144531 33.585938 8.351562 C 33.796875 8.640625 34.03125 8.945312 34.074219 9.3125 C 34.03125 9.558594 33.886719 9.78125 33.6875 9.929688 C 33.507812 9.925781 33.332031 9.886719 33.15625 9.867188 C 33.394531 10.792969 33.699219 11.710938 34.21875 12.515625 C 34.554688 13.023438 35.007812 13.546875 35.648438 13.621094 C 36.386719 13.65625 36.96875 13.132812 37.535156 12.734375 C 38.222656 12.261719 38.898438 11.761719 39.523438 11.207031 C 39.6875 11.082031 39.851562 10.867188 40.082031 10.964844 C 40.101562 11.019531 40.144531 11.125 40.164062 11.179688 C 39.742188 11.644531 39.234375 12.011719 38.742188 12.394531 C 39.589844 13.125 40.285156 14.035156 40.667969 15.09375 C 40.609375 15.15625 40.546875 15.214844 40.46875 15.257812 C 40.605469 15.226562 40.75 15.238281 40.882812 15.195312 C 42.636719 14.554688 44.378906 13.890625 46.125 13.242188 C 45.871094 12.519531 45.65625 11.785156 45.351562 11.082031 C 44.78125 9.65625 44.007812 8.296875 42.949219 7.179688 C 42.824219 7.28125 42.707031 7.40625 42.554688 7.464844 C 42.449219 7.449219 42.351562 7.40625 42.28125 7.328125 C 42.328125 7.175781 42.464844 7.066406 42.558594 6.9375 C 42.484375 6.683594 42.363281 6.445312 42.289062 6.195312 C 42.359375 5.316406 42.246094 4.414062 41.898438 3.597656 C 41.816406 4.070312 41.847656 4.558594 41.980469 5.015625 C 42.097656 5.457031 42.089844 6.007812 41.71875 6.328125 C 41.597656 6.4375 41.292969 6.402344 41.316406 6.199219 C 41.410156 6.007812 41.578125 5.851562 41.617188 5.632812 C 41.601562 5.054688 41.355469 4.496094 41.4375 3.914062 C 41.449219 3.691406 41.550781 3.453125 41.429688 3.246094 M 38.957031 3.917969 C 38.867188 4.253906 38.757812 4.585938 38.722656 4.929688 C 39.082031 4.726562 39.113281 4.261719 38.957031 3.917969 M 39.429688 4.78125 C 39.515625 4.773438 39.601562 4.765625 39.6875 4.761719 C 39.640625 4.585938 39.589844 4.410156 39.527344 4.242188 C 39.492188 4.421875 39.464844 4.601562 39.429688 4.78125 M 32.628906 8.972656 C 32.664062 9.175781 32.859375 9.285156 32.988281 9.429688 C 33.066406 9.332031 33.128906 9.230469 33.222656 9.152344 C 33.421875 9.140625 33.496094 9.355469 33.617188 9.476562 C 33.6875 9.074219 33.367188 8.789062 33.125 8.523438 C 32.902344 8.59375 32.730469 8.765625 32.628906 8.972656 M 33.226562 12.402344 C 33.371094 12.4375 33.519531 12.460938 33.667969 12.488281 C 33.410156 11.929688 33.148438 11.375 32.984375 10.78125 C 32.898438 11.332031 32.964844 11.90625 33.226562 12.402344 Z M 33.226562 12.402344 "/>
<path style=" stroke:none;fill-rule:nonzero;fill:rgb(0.784314%,0.784314%,0.784314%);fill-opacity:1;" d="M 32.21875 24.351562 C 32.355469 24.324219 32.496094 24.308594 32.636719 24.296875 C 32.671875 25.164062 32.671875 26.03125 32.660156 26.902344 C 32.769531 26.917969 32.878906 26.9375 32.992188 26.960938 C 32.746094 27.039062 32.484375 26.992188 32.230469 26.984375 C 32.296875 26.945312 32.359375 26.902344 32.425781 26.863281 C 32.433594 26.058594 32.429688 25.25 32.433594 24.449219 C 32.359375 24.414062 32.289062 24.382812 32.21875 24.351562 Z M 32.21875 24.351562 "/>
<path style=" stroke:none;fill-rule:nonzero;fill:rgb(0.784314%,0.784314%,0.784314%);fill-opacity:1;" d="M 44.160156 24.859375 C 44.207031 24.855469 44.304688 24.84375 44.355469 24.839844 C 44.355469 24.949219 44.359375 25.058594 44.363281 25.171875 C 44.507812 25.191406 44.652344 25.214844 44.800781 25.242188 C 44.652344 25.253906 44.503906 25.261719 44.355469 25.269531 C 44.359375 25.71875 44.363281 26.164062 44.386719 26.609375 C 44.40625 26.851562 44.695312 26.875 44.859375 26.980469 C 44.625 26.949219 44.300781 26.976562 44.175781 26.722656 C 44.113281 26.105469 44.140625 25.480469 44.160156 24.859375 Z M 44.160156 24.859375 "/>
<path style=" stroke:none;fill-rule:nonzero;fill:rgb(0.784314%,0.784314%,0.784314%);fill-opacity:1;" d="M 53.015625 25.363281 C 53.34375 25.222656 53.75 25.09375 54.089844 25.285156 C 54.253906 25.375 54.292969 25.570312 54.316406 25.746094 C 54.339844 26.113281 54.285156 26.484375 54.320312 26.851562 C 54.402344 26.902344 54.480469 26.953125 54.566406 27.003906 C 54.433594 26.992188 54.308594 26.972656 54.183594 26.945312 C 53.847656 26.847656 53.503906 26.992188 53.167969 26.945312 C 53.074219 26.898438 53.027344 26.792969 52.960938 26.722656 C 52.972656 26.589844 52.925781 26.40625 53.070312 26.328125 C 53.367188 26.140625 53.734375 26.140625 54.066406 26.070312 C 54.082031 25.804688 54.128906 25.402344 53.824219 25.28125 C 53.457031 25.183594 53.050781 25.457031 53.027344 25.84375 C 53.023438 25.683594 53.007812 25.523438 53.015625 25.363281 M 53.421875 26.222656 C 53.160156 26.300781 53.078125 26.738281 53.332031 26.871094 C 53.585938 26.945312 53.84375 26.847656 54.089844 26.792969 C 54.085938 26.574219 54.085938 26.355469 54.082031 26.136719 C 53.859375 26.164062 53.636719 26.171875 53.421875 26.222656 Z M 53.421875 26.222656 "/>
<path style=" stroke:none;fill-rule:nonzero;fill:rgb(0.784314%,0.784314%,0.784314%);fill-opacity:1;" d="M 57.078125 25.335938 C 57.457031 25.058594 58.082031 25.160156 58.304688 25.59375 C 58.511719 26.070312 58.371094 26.753906 57.839844 26.945312 C 57.679688 27.046875 57.503906 27.039062 57.328125 27.003906 C 56.613281 26.808594 56.519531 25.753906 57.078125 25.335938 M 56.941406 26.101562 C 56.921875 26.4375 57.121094 26.714844 57.324219 26.960938 C 57.542969 26.941406 57.785156 26.90625 57.941406 26.734375 C 58.296875 26.316406 58.257812 25.597656 57.792969 25.273438 C 57.292969 25.121094 56.902344 25.640625 56.941406 26.101562 Z M 56.941406 26.101562 "/>
<path style=" stroke:none;fill-rule:nonzero;fill:rgb(0.392157%,0.392157%,0.392157%);fill-opacity:1;" d="M 37.003906 6.699219 C 37.613281 6.550781 38.234375 6.910156 38.558594 7.414062 C 38.316406 7.761719 37.988281 8.121094 37.53125 8.132812 C 37.285156 8.175781 37.121094 7.949219 37.027344 7.753906 C 36.859375 7.425781 36.949219 7.046875 37.003906 6.699219 M 37.855469 7.34375 C 37.820312 7.496094 37.925781 7.496094 38.042969 7.476562 C 38.039062 7.429688 38.035156 7.34375 38.03125 7.300781 C 37.972656 7.3125 37.910156 7.324219 37.855469 7.34375 Z M 37.855469 7.34375 "/>
<path style=" stroke:none;fill-rule:nonzero;fill:rgb(0.392157%,0.392157%,0.392157%);fill-opacity:1;" d="M 1.476562 15.113281 C 11.210938 15.113281 20.941406 15.105469 30.671875 15.117188 C 30.671875 15.292969 30.671875 15.46875 30.671875 15.644531 C 20.941406 15.636719 11.207031 15.644531 1.476562 15.640625 C 1.476562 15.464844 1.476562 15.289062 1.476562 15.113281 Z M 1.476562 15.113281 "/>
<path style=" stroke:none;fill-rule:nonzero;fill:rgb(0.392157%,0.392157%,0.392157%);fill-opacity:1;" d="M 48.15625 15.125 C 52.320312 15.097656 56.484375 15.121094 60.648438 15.113281 C 65.722656 15.113281 70.796875 15.113281 75.871094 15.113281 C 76.371094 15.117188 76.875 15.097656 77.375 15.125 C 77.371094 15.292969 77.371094 15.464844 77.375 15.636719 C 68.488281 15.648438 59.605469 15.636719 50.71875 15.640625 C 49.867188 15.636719 49.011719 15.648438 48.160156 15.632812 C 48.160156 15.464844 48.160156 15.292969 48.15625 15.125 Z M 48.15625 15.125 "/>
<path style=" stroke:none;fill-rule:nonzero;fill:rgb(0.392157%,0.392157%,0.392157%);fill-opacity:1;" d="M 1.960938 17.867188 C 2.371094 17.375 3.042969 17.199219 3.664062 17.191406 C 4.082031 17.21875 4.523438 17.226562 4.894531 17.4375 C 5.433594 17.6875 5.867188 18.21875 5.851562 18.832031 C 5.496094 18.867188 5.136719 18.890625 4.785156 18.820312 C 4.554688 18.074219 3.574219 17.933594 2.976562 18.304688 C 2.683594 18.519531 2.6875 19.066406 3.023438 19.242188 C 3.796875 19.6875 4.757812 19.660156 5.5 20.171875 C 6.265625 20.699219 6.171875 21.996094 5.40625 22.488281 C 4.722656 22.972656 3.820312 23.003906 3.019531 22.878906 C 2.230469 22.757812 1.46875 22.117188 1.472656 21.269531 C 1.8125 21.234375 2.152344 21.226562 2.492188 21.253906 C 2.65625 21.480469 2.804688 21.746094 3.066406 21.878906 C 3.5625 22.09375 4.160156 22.078125 4.636719 21.820312 C 4.929688 21.632812 4.992188 21.117188 4.695312 20.90625 C 3.871094 20.386719 2.78125 20.472656 2.03125 19.808594 C 1.515625 19.304688 1.511719 18.417969 1.960938 17.867188 Z M 1.960938 17.867188 "/>
<path style=" stroke:none;fill-rule:nonzero;fill:rgb(0.392157%,0.392157%,0.392157%);fill-opacity:1;" d="M 17.546875 17.359375 C 17.902344 17.175781 18.308594 17.265625 18.6875 17.285156 C 18.820312 17.347656 18.738281 17.546875 18.652344 17.625 C 17.941406 18.394531 17.238281 19.171875 16.535156 19.945312 C 17.363281 20.871094 18.1875 21.796875 18.988281 22.75 C 18.503906 22.925781 17.820312 23.015625 17.464844 22.558594 C 16.890625 21.90625 16.296875 21.269531 15.703125 20.632812 C 15.667969 21.316406 15.714844 22 15.675781 22.679688 C 15.6875 22.800781 15.558594 22.824219 15.476562 22.855469 C 15.195312 22.914062 14.910156 22.855469 14.632812 22.855469 C 14.574219 22.199219 14.59375 21.539062 14.59375 20.878906 C 14.625 19.679688 14.546875 18.472656 14.636719 17.273438 C 14.980469 17.285156 15.347656 17.183594 15.667969 17.351562 C 15.710938 18.003906 15.679688 18.65625 15.695312 19.3125 C 16.109375 18.882812 16.515625 18.449219 16.929688 18.019531 C 17.140625 17.804688 17.308594 17.546875 17.546875 17.359375 Z M 17.546875 17.359375 "/>
<path style=" stroke:none;fill-rule:nonzero;fill:rgb(0.392157%,0.392157%,0.392157%);fill-opacity:1;" d="M 36.675781 17.269531 C 37.019531 17.300781 37.460938 17.128906 37.722656 17.421875 C 38.199219 18.789062 38.605469 20.179688 39.097656 21.539062 C 39.550781 20.132812 40.015625 18.730469 40.492188 17.332031 C 40.828125 17.191406 41.195312 17.285156 41.546875 17.28125 C 41.527344 17.535156 41.460938 17.785156 41.371094 18.027344 C 40.820312 19.609375 40.324219 21.214844 39.757812 22.796875 C 39.320312 22.914062 38.839844 22.9375 38.410156 22.78125 C 37.828125 21.136719 37.292969 19.480469 36.753906 17.820312 C 36.699219 17.640625 36.597656 17.460938 36.675781 17.269531 Z M 36.675781 17.269531 "/>
<path style=" stroke:none;fill-rule:nonzero;fill:rgb(0.392157%,0.392157%,0.392157%);fill-opacity:1;" d="M 73.441406 17.71875 C 73.945312 17.277344 74.652344 17.15625 75.304688 17.210938 C 76.023438 17.226562 76.777344 17.605469 77.082031 18.289062 C 77.183594 18.449219 77.183594 18.640625 77.160156 18.824219 C 76.820312 18.867188 76.480469 18.859375 76.136719 18.84375 C 75.90625 18.0625 74.835938 17.894531 74.25 18.363281 C 74.03125 18.59375 74.058594 18.980469 74.289062 19.195312 C 75.117188 19.71875 76.210938 19.636719 76.976562 20.28125 C 77.597656 20.898438 77.441406 22.074219 76.695312 22.523438 C 76.152344 22.90625 75.457031 22.960938 74.816406 22.929688 C 74.171875 22.898438 73.488281 22.664062 73.089844 22.132812 C 72.9375 21.875 72.726562 21.558594 72.875 21.253906 C 73.183594 21.25 73.5 21.199219 73.808594 21.265625 C 73.992188 21.417969 74.082031 21.675781 74.289062 21.8125 C 74.636719 22.039062 75.078125 22.058594 75.476562 22.003906 C 75.765625 21.957031 76.066406 21.808594 76.195312 21.53125 C 76.355469 21.304688 76.175781 21.007812 75.980469 20.867188 C 75.222656 20.425781 74.273438 20.464844 73.550781 19.949219 C 72.820312 19.476562 72.789062 18.273438 73.441406 17.71875 Z M 73.441406 17.71875 "/>
<path style=" stroke:none;fill-rule:nonzero;fill:rgb(0.392157%,0.392157%,0.392157%);fill-opacity:1;" d="M 57.636719 17.273438 C 58.613281 17.277344 59.597656 17.175781 60.566406 17.335938 C 61.003906 17.441406 61.445312 17.664062 61.683594 18.066406 C 62.066406 18.722656 62.042969 19.636719 61.527344 20.21875 C 61.1875 20.605469 60.65625 20.742188 60.164062 20.792969 C 59.675781 20.816406 59.1875 20.796875 58.699219 20.804688 C 58.699219 21.402344 58.691406 22.003906 58.6875 22.601562 C 58.710938 22.707031 58.644531 22.808594 58.546875 22.835938 C 58.242188 22.933594 57.921875 22.855469 57.609375 22.855469 C 57.554688 22.582031 57.546875 22.304688 57.5625 22.027344 C 57.59375 21.046875 57.507812 20.070312 57.554688 19.089844 C 57.578125 18.484375 57.460938 17.863281 57.636719 17.273438 M 58.675781 18.152344 C 58.675781 18.734375 58.675781 19.316406 58.675781 19.898438 C 59.21875 19.917969 59.78125 19.972656 60.3125 19.824219 C 60.996094 19.578125 60.945312 18.414062 60.25 18.222656 C 59.734375 18.101562 59.199219 18.171875 58.675781 18.152344 Z M 58.675781 18.152344 "/>
<path style=" stroke:none;fill-rule:nonzero;fill:rgb(0.392157%,0.392157%,0.392157%);fill-opacity:1;" d="M 45.09375 25.25 C 45.273438 25.210938 45.457031 25.191406 45.636719 25.175781 C 45.640625 25.652344 45.636719 26.128906 45.664062 26.601562 C 45.644531 26.746094 45.78125 26.824219 45.886719 26.890625 C 45.90625 26.867188 45.945312 26.8125 45.964844 26.78125 C 45.964844 26.824219 45.972656 26.910156 45.972656 26.953125 C 46.15625 26.894531 46.347656 26.847656 46.53125 26.800781 C 46.542969 26.300781 46.566406 25.800781 46.523438 25.300781 C 46.476562 25.285156 46.386719 25.257812 46.34375 25.242188 C 46.34375 25.226562 46.351562 25.195312 46.351562 25.179688 C 46.492188 25.183594 46.628906 25.1875 46.769531 25.191406 C 46.765625 25.746094 46.773438 26.300781 46.785156 26.855469 C 46.878906 26.898438 46.976562 26.941406 47.070312 26.980469 C 46.894531 26.984375 46.71875 26.988281 46.558594 26.917969 C 46.308594 26.800781 46.074219 27.066406 45.820312 26.984375 C 45.648438 26.945312 45.441406 26.847656 45.4375 26.644531 C 45.398438 26.191406 45.425781 25.738281 45.410156 25.285156 C 45.332031 25.277344 45.171875 25.257812 45.09375 25.25 Z M 45.09375 25.25 "/>
<path style=" stroke:none;fill-rule:nonzero;fill:rgb(0.392157%,0.392157%,0.392157%);fill-opacity:1;" d="M 28.230469 25.222656 C 28.425781 25.183594 28.628906 25.210938 28.796875 25.324219 C 29.039062 25.238281 29.300781 25.128906 29.550781 25.230469 C 29.71875 25.28125 29.800781 25.460938 29.816406 25.621094 C 29.867188 26.050781 29.8125 26.484375 29.832031 26.917969 C 29.929688 26.929688 30.027344 26.945312 30.125 26.964844 C 29.898438 26.988281 29.667969 27.007812 29.441406 26.996094 C 29.480469 26.960938 29.5625 26.898438 29.601562 26.863281 C 29.585938 26.378906 29.679688 25.867188 29.507812 25.402344 C 29.300781 25.171875 28.957031 25.328125 28.710938 25.402344 C 28.722656 25.898438 28.71875 26.394531 28.714844 26.890625 C 28.78125 26.890625 28.914062 26.890625 28.980469 26.894531 C 28.859375 26.933594 28.730469 26.957031 28.609375 26.976562 C 28.613281 26.996094 28.628906 27.03125 28.636719 27.050781 C 28.527344 26.960938 28.378906 26.984375 28.25 26.96875 C 28.332031 26.945312 28.410156 26.925781 28.492188 26.90625 C 28.496094 26.371094 28.492188 25.839844 28.492188 25.308594 C 28.402344 25.28125 28.316406 25.253906 28.230469 25.222656 Z M 28.230469 25.222656 "/>
<path style=" stroke:none;fill-rule:nonzero;fill:rgb(0.392157%,0.392157%,0.392157%);fill-opacity:1;" d="M 37.03125 25.210938 C 37.15625 25.210938 37.28125 25.207031 37.40625 25.203125 C 37.472656 25.765625 37.441406 26.335938 37.449219 26.902344 C 37.515625 26.917969 37.640625 26.945312 37.707031 26.960938 C 37.488281 26.980469 37.269531 26.996094 37.050781 27 C 37.054688 26.972656 37.0625 26.914062 37.066406 26.882812 C 37.101562 26.894531 37.175781 26.914062 37.210938 26.925781 C 37.207031 26.390625 37.238281 25.855469 37.195312 25.320312 C 37.15625 25.292969 37.070312 25.238281 37.03125 25.210938 Z M 37.03125 25.210938 "/>
<path style=" stroke:none;fill-rule:nonzero;fill:rgb(1.176471%,1.176471%,1.176471%);fill-opacity:1;" d="M 1.472656 14.074219 C 11.207031 14.070312 20.945312 14.074219 30.683594 14.074219 C 30.683594 14.25 30.683594 14.425781 30.683594 14.605469 C 20.949219 14.597656 11.21875 14.609375 1.488281 14.597656 C 1.484375 14.425781 1.476562 14.25 1.472656 14.074219 Z M 1.472656 14.074219 "/>
<path style=" stroke:none;fill-rule:nonzero;fill:rgb(1.176471%,1.176471%,1.176471%);fill-opacity:1;" d="M 23.996094 24.773438 C 24.074219 24.898438 24.113281 25.042969 24.160156 25.183594 C 24.265625 25.183594 24.375 25.183594 24.484375 25.183594 C 24.488281 25.203125 24.5 25.25 24.503906 25.273438 C 24.382812 25.269531 24.261719 25.265625 24.144531 25.257812 C 24.113281 25.742188 24.121094 26.234375 24.160156 26.714844 C 24.273438 26.875 24.5 26.890625 24.667969 26.976562 C 24.394531 26.964844 24.082031 26.960938 23.902344 26.722656 C 23.90625 26.074219 23.765625 25.398438 23.996094 24.773438 Z M 23.996094 24.773438 "/>
<path style=" stroke:none;fill-rule:nonzero;fill:rgb(1.176471%,1.176471%,1.176471%);fill-opacity:1;" d="M 31.070312 25.1875 C 31.378906 25.164062 31.722656 25.289062 31.867188 25.582031 C 32.105469 26.0625 31.921875 26.804688 31.355469 26.945312 C 31.019531 27.003906 30.578125 26.980469 30.410156 26.628906 C 30.085938 26.097656 30.378906 25.195312 31.070312 25.1875 M 30.746094 25.425781 C 30.464844 25.710938 30.46875 26.160156 30.582031 26.515625 C 30.667969 26.886719 31.171875 27.019531 31.457031 26.789062 C 31.6875 26.601562 31.746094 26.269531 31.730469 25.988281 C 31.699219 25.988281 31.640625 25.988281 31.609375 25.988281 C 31.640625 25.976562 31.699219 25.960938 31.726562 25.949219 C 31.703125 25.742188 31.632812 25.527344 31.472656 25.386719 C 31.269531 25.207031 30.929688 25.230469 30.746094 25.425781 Z M 30.746094 25.425781 "/>
<path style=" stroke:none;fill-rule:nonzero;fill:rgb(1.176471%,1.176471%,1.176471%);fill-opacity:1;" d="M 33.730469 25.257812 C 33.96875 25.136719 34.234375 25.226562 34.488281 25.175781 C 34.496094 25.207031 34.515625 25.269531 34.523438 25.300781 C 35.113281 25.59375 35.015625 26.578125 34.484375 26.894531 C 34.132812 27.003906 33.664062 27.027344 33.410156 26.710938 C 33.09375 26.261719 33.210938 25.507812 33.730469 25.257812 M 33.820312 25.320312 C 33.335938 25.683594 33.3125 26.570312 33.867188 26.882812 C 34.03125 26.890625 34.210938 26.933594 34.359375 26.828125 C 34.691406 26.636719 34.707031 26.1875 34.671875 25.847656 C 34.671875 25.445312 34.1875 25.101562 33.820312 25.320312 Z M 33.820312 25.320312 "/>
<path style=" stroke:none;fill-rule:nonzero;fill:rgb(1.176471%,1.176471%,1.176471%);fill-opacity:1;" d="M 54.679688 25.257812 C 54.886719 25.171875 55.085938 25.238281 55.28125 25.320312 C 55.566406 25.199219 55.960938 25.082031 56.1875 25.375 C 56.367188 25.863281 56.234375 26.398438 56.289062 26.902344 C 56.351562 26.902344 56.480469 26.902344 56.542969 26.898438 C 56.546875 26.910156 56.546875 26.933594 56.550781 26.945312 C 56.292969 26.957031 56.035156 26.960938 55.777344 26.953125 C 55.867188 26.925781 55.957031 26.894531 56.050781 26.867188 C 56.023438 26.367188 56.136719 25.839844 55.929688 25.367188 C 55.789062 25.257812 55.59375 25.300781 55.4375 25.289062 C 55.507812 25.335938 55.582031 25.382812 55.65625 25.429688 C 55.554688 25.429688 55.457031 25.402344 55.378906 25.335938 C 55.324219 25.351562 55.214844 25.386719 55.164062 25.402344 C 55.183594 25.898438 55.140625 26.398438 55.179688 26.898438 C 55.226562 26.917969 55.324219 26.964844 55.371094 26.984375 C 55.144531 26.980469 54.921875 27.003906 54.699219 26.984375 C 54.777344 26.953125 54.855469 26.917969 54.9375 26.886719 C 54.925781 26.363281 54.933594 25.839844 54.933594 25.316406 C 54.871094 25.300781 54.742188 25.273438 54.679688 25.257812 Z M 54.679688 25.257812 "/>
<path style=" stroke:none;fill-rule:nonzero;fill:rgb(0%,0%,0%);fill-opacity:1;" d="M 48.167969 14.074219 C 57.902344 14.074219 67.636719 14.074219 77.371094 14.074219 C 77.371094 14.246094 77.371094 14.421875 77.371094 14.597656 C 67.636719 14.609375 57.898438 14.601562 48.164062 14.601562 C 48.160156 14.425781 48.164062 14.25 48.167969 14.074219 Z M 48.167969 14.074219 "/>
<path style=" stroke:none;fill-rule:nonzero;fill:rgb(0%,0%,0%);fill-opacity:1;" d="M 7.082031 17.289062 C 7.398438 17.207031 7.734375 17.269531 8.058594 17.253906 C 8.890625 17.273438 9.785156 17.148438 10.546875 17.566406 C 11.320312 17.96875 11.5 19.019531 11.199219 19.78125 C 11.027344 20.265625 10.566406 20.578125 10.082031 20.699219 C 9.433594 20.882812 8.75 20.761719 8.089844 20.8125 C 8.085938 21.464844 8.105469 22.117188 8.074219 22.765625 C 7.753906 22.96875 7.359375 22.84375 7.007812 22.859375 C 6.96875 22.664062 6.9375 22.46875 6.941406 22.269531 C 6.9375 20.71875 6.941406 19.171875 6.9375 17.621094 C 6.949219 17.503906 6.933594 17.320312 7.082031 17.289062 M 8.074219 18.148438 C 8.0625 18.730469 8.070312 19.3125 8.070312 19.894531 C 8.632812 19.914062 9.222656 19.992188 9.765625 19.800781 C 10.234375 19.589844 10.28125 18.964844 10.078125 18.546875 C 10.097656 18.527344 10.132812 18.488281 10.152344 18.46875 C 9.953125 18.53125 9.882812 18.257812 9.695312 18.234375 C 9.167969 18.085938 8.613281 18.179688 8.074219 18.148438 Z M 8.074219 18.148438 "/>
<path style=" stroke:none;fill-rule:nonzero;fill:rgb(0%,0%,0%);fill-opacity:1;" d="M 32.101562 17.25 C 33.355469 17.253906 34.609375 17.253906 35.863281 17.253906 L 35.925781 17.347656 C 35.953125 17.355469 36.011719 17.375 36.042969 17.382812 C 36.011719 17.382812 35.945312 17.382812 35.914062 17.382812 C 36 17.640625 36.007812 17.914062 35.886719 18.160156 C 34.964844 18.222656 34.039062 18.171875 33.113281 18.199219 C 33.140625 18.664062 33.132812 19.132812 33.136719 19.601562 C 34.015625 19.601562 34.894531 19.578125 35.773438 19.636719 C 35.769531 19.914062 35.765625 20.191406 35.773438 20.46875 C 34.898438 20.472656 34.019531 20.484375 33.144531 20.46875 C 33.125 20.957031 33.132812 21.449219 33.140625 21.941406 C 33.949219 21.953125 34.761719 21.941406 35.570312 21.945312 C 35.714844 21.941406 35.855469 21.96875 35.996094 21.996094 C 36.011719 22.285156 36.070312 22.59375 35.933594 22.863281 C 34.652344 22.859375 33.375 22.867188 32.097656 22.859375 C 32.035156 22.421875 32.058594 21.976562 32.054688 21.535156 C 32.054688 20.339844 32.054688 19.144531 32.054688 17.949219 C 32.050781 17.714844 32.082031 17.484375 32.101562 17.25 Z M 32.101562 17.25 "/>
<path style=" stroke:none;fill-rule:nonzero;fill:rgb(0%,0%,0%);fill-opacity:1;" d="M 42.4375 17.304688 C 42.59375 17.265625 42.75 17.25 42.90625 17.253906 C 43.882812 17.253906 44.859375 17.253906 45.835938 17.25 C 45.984375 17.25 46.148438 17.246094 46.273438 17.347656 C 46.320312 17.609375 46.367188 17.910156 46.234375 18.15625 C 45.324219 18.242188 44.402344 18.164062 43.488281 18.195312 C 43.480469 18.664062 43.484375 19.128906 43.484375 19.597656 C 44.355469 19.617188 45.230469 19.5625 46.097656 19.644531 C 46.125 19.90625 46.128906 20.171875 46.109375 20.433594 C 45.242188 20.53125 44.359375 20.445312 43.488281 20.480469 C 43.476562 20.964844 43.480469 21.453125 43.484375 21.941406 C 44.160156 21.949219 44.832031 21.941406 45.503906 21.945312 C 45.785156 21.945312 46.070312 21.921875 46.347656 22 C 46.371094 22.285156 46.359375 22.574219 46.316406 22.859375 C 45.152344 22.867188 43.988281 22.859375 42.824219 22.863281 C 42.695312 22.867188 42.5625 22.84375 42.4375 22.824219 C 42.367188 21.691406 42.421875 20.550781 42.40625 19.414062 C 42.421875 18.710938 42.367188 18.003906 42.4375 17.304688 Z M 42.4375 17.304688 "/>
<path style=" stroke:none;fill-rule:nonzero;fill:rgb(0%,0%,0%);fill-opacity:1;" d="M 53.65625 17.230469 C 54.46875 17.113281 55.40625 17.261719 55.976562 17.910156 C 56.429688 18.429688 56.503906 19.160156 56.507812 19.824219 C 56.503906 20.558594 56.550781 21.347656 56.15625 22.003906 C 55.808594 22.628906 55.066406 22.90625 54.382812 22.929688 C 53.675781 22.976562 52.886719 22.839844 52.378906 22.3125 C 51.984375 21.886719 51.839844 21.292969 51.824219 20.722656 C 51.808594 20.058594 51.769531 19.378906 51.914062 18.722656 C 52.109375 17.921875 52.839844 17.308594 53.65625 17.230469 M 53.980469 18.121094 C 53.71875 18.164062 53.4375 18.242188 53.269531 18.460938 C 52.945312 18.863281 52.949219 19.417969 52.945312 19.90625 C 52.957031 20.414062 52.894531 20.953125 53.109375 21.429688 C 53.472656 22.160156 54.621094 22.230469 55.097656 21.589844 C 55.292969 21.3125 55.332031 20.964844 55.347656 20.632812 C 55.363281 20.199219 55.363281 19.765625 55.339844 19.332031 C 55.300781 18.984375 55.21875 18.601562 54.9375 18.371094 C 54.675781 18.144531 54.316406 18.074219 53.980469 18.121094 Z M 53.980469 18.121094 "/>
<path style=" stroke:none;fill-rule:nonzero;fill:rgb(0%,0%,0%);fill-opacity:1;" d="M 12.25 17.265625 C 12.601562 17.28125 12.949219 17.277344 13.300781 17.269531 C 13.382812 18.390625 13.320312 19.519531 13.339844 20.640625 C 13.339844 21.382812 13.351562 22.125 13.304688 22.863281 C 12.953125 22.863281 12.601562 22.859375 12.246094 22.867188 C 12.179688 21.554688 12.226562 20.242188 12.214844 18.929688 C 12.210938 18.375 12.203125 17.820312 12.25 17.265625 Z M 12.25 17.265625 "/>
<path style=" stroke:none;fill-rule:nonzero;fill:rgb(0%,0%,0%);fill-opacity:1;" d="M 19.703125 17.308594 C 20.078125 17.230469 20.46875 17.300781 20.847656 17.269531 C 21.730469 17.21875 22.617188 17.285156 23.503906 17.269531 C 23.550781 17.558594 23.554688 17.851562 23.515625 18.144531 C 23.199219 18.21875 22.875 18.1875 22.554688 18.191406 C 21.941406 18.195312 21.328125 18.183594 20.714844 18.199219 C 20.726562 18.667969 20.710938 19.136719 20.722656 19.601562 C 21.585938 19.597656 22.449219 19.585938 23.3125 19.625 C 23.40625 19.902344 23.429688 20.203125 23.28125 20.46875 C 22.425781 20.472656 21.574219 20.507812 20.71875 20.496094 C 20.714844 20.976562 20.71875 21.457031 20.714844 21.9375 C 21.65625 21.960938 22.601562 21.914062 23.542969 21.980469 C 23.664062 22.253906 23.644531 22.566406 23.535156 22.84375 C 22.273438 22.890625 21.011719 22.84375 19.75 22.867188 C 19.589844 22.675781 19.652344 22.417969 19.640625 22.191406 C 19.636719 20.609375 19.640625 19.03125 19.65625 17.449219 C 19.667969 17.414062 19.691406 17.34375 19.703125 17.308594 Z M 19.703125 17.308594 "/>
<path style=" stroke:none;fill-rule:nonzero;fill:rgb(0%,0%,0%);fill-opacity:1;" d="M 26.472656 17.273438 C 27.253906 17.28125 28.03125 17.269531 28.8125 17.277344 C 29.390625 17.3125 30.015625 17.449219 30.425781 17.890625 C 30.859375 18.335938 30.980469 18.980469 30.980469 19.582031 C 30.984375 20.261719 31.035156 20.96875 30.808594 21.621094 C 30.6875 22.070312 30.347656 22.453125 29.917969 22.625 C 29.472656 22.828125 28.976562 22.871094 28.496094 22.863281 C 27.820312 22.859375 27.148438 22.867188 26.472656 22.859375 C 26.410156 22.066406 26.449219 21.269531 26.4375 20.472656 C 26.449219 19.40625 26.410156 18.339844 26.472656 17.273438 M 27.546875 18.199219 C 27.550781 19.445312 27.550781 20.695312 27.546875 21.941406 C 28.171875 21.90625 28.855469 22.070312 29.425781 21.742188 C 29.894531 21.398438 29.855469 20.746094 29.855469 20.230469 C 29.835938 19.628906 29.957031 18.898438 29.464844 18.445312 C 28.90625 18.050781 28.183594 18.226562 27.546875 18.199219 Z M 27.546875 18.199219 "/>
<path style=" stroke:none;fill-rule:nonzero;fill:rgb(0%,0%,0%);fill-opacity:1;" d="M 47.390625 17.328125 C 47.730469 17.195312 48.132812 17.230469 48.480469 17.335938 C 48.492188 18.863281 48.496094 20.386719 48.484375 21.914062 C 49.382812 21.953125 50.285156 21.84375 51.183594 21.960938 C 51.25 22.257812 51.246094 22.566406 51.160156 22.863281 C 49.914062 22.867188 48.667969 22.855469 47.421875 22.867188 C 47.335938 22.074219 47.378906 21.277344 47.371094 20.480469 C 47.378906 19.429688 47.347656 18.378906 47.390625 17.328125 Z M 47.390625 17.328125 "/>
<path style=" stroke:none;fill-rule:nonzero;fill:rgb(0%,0%,0%);fill-opacity:1;" d="M 62.828125 17.871094 C 62.847656 17.664062 62.738281 17.382812 62.972656 17.269531 C 64.1875 17.28125 65.402344 17.277344 66.613281 17.269531 C 66.792969 17.523438 66.707031 17.839844 66.695312 18.128906 C 66.582031 18.160156 66.46875 18.195312 66.351562 18.191406 C 65.53125 18.195312 64.714844 18.1875 63.894531 18.195312 C 63.898438 18.664062 63.898438 19.128906 63.898438 19.597656 C 64.761719 19.617188 65.632812 19.558594 66.492188 19.644531 C 66.535156 19.902344 66.636719 20.269531 66.429688 20.464844 C 65.582031 20.492188 64.730469 20.5 63.882812 20.5 C 63.886719 20.972656 63.890625 21.449219 63.878906 21.921875 C 64.824219 22 65.78125 21.875 66.722656 21.992188 C 66.847656 22.273438 66.777344 22.574219 66.726562 22.863281 C 65.511719 22.859375 64.296875 22.867188 63.082031 22.859375 C 62.964844 22.890625 62.894531 22.785156 62.816406 22.726562 C 62.832031 21.109375 62.800781 19.488281 62.828125 17.871094 Z M 62.828125 17.871094 "/>
<path style=" stroke:none;fill-rule:nonzero;fill:rgb(0%,0%,0%);fill-opacity:1;" d="M 67.824219 17.277344 C 68.605469 17.257812 69.390625 17.234375 70.171875 17.261719 C 70.757812 17.28125 71.371094 17.46875 71.769531 17.921875 C 72.457031 18.75 72.113281 20.21875 71.066406 20.570312 C 71.464844 21.3125 71.90625 22.027344 72.285156 22.78125 C 71.933594 22.894531 71.566406 22.890625 71.207031 22.863281 C 70.742188 22.210938 70.417969 21.476562 70.011719 20.789062 C 69.644531 20.722656 69.265625 20.746094 68.894531 20.738281 C 68.882812 21.429688 68.917969 22.121094 68.859375 22.808594 C 68.523438 22.933594 68.167969 22.859375 67.820312 22.851562 C 67.800781 22.578125 67.773438 22.304688 67.773438 22.03125 C 67.773438 20.695312 67.773438 19.363281 67.773438 18.03125 C 67.773438 17.777344 67.804688 17.527344 67.824219 17.277344 M 68.894531 18.152344 C 68.890625 18.714844 68.898438 19.277344 68.890625 19.839844 C 69.265625 19.84375 69.636719 19.84375 70.011719 19.84375 C 70.230469 19.832031 70.464844 19.820312 70.652344 19.691406 C 71.136719 19.351562 71.085938 18.460938 70.511719 18.242188 C 69.988281 18.089844 69.433594 18.171875 68.894531 18.152344 Z M 68.894531 18.152344 "/>
<path style=" stroke:none;fill-rule:nonzero;fill:rgb(0%,0%,0%);fill-opacity:1;" d="M 18.949219 24.488281 C 19.199219 24.5 19.453125 24.519531 19.703125 24.511719 C 19.597656 24.542969 19.496094 24.570312 19.390625 24.601562 C 19.402344 25.371094 19.394531 26.144531 19.394531 26.917969 C 19.722656 26.921875 20.050781 26.933594 20.378906 26.902344 C 20.390625 26.710938 20.421875 26.515625 20.488281 26.332031 C 20.5 26.550781 20.484375 26.773438 20.476562 26.992188 C 19.960938 27.027344 19.445312 26.984375 18.925781 26.972656 C 18.980469 26.957031 19.089844 26.921875 19.144531 26.902344 C 19.164062 26.140625 19.144531 25.378906 19.152344 24.617188 C 19.085938 24.574219 19.015625 24.53125 18.949219 24.488281 Z M 18.949219 24.488281 "/>
<path style=" stroke:none;fill-rule:nonzero;fill:rgb(7.45098%,7.45098%,7.45098%);fill-opacity:1;" d="M 37.242188 24.429688 C 37.378906 24.269531 37.574219 24.515625 37.457031 24.652344 C 37.390625 24.945312 37.070312 24.5625 37.242188 24.429688 Z M 37.242188 24.429688 "/>
<path style=" stroke:none;fill-rule:nonzero;fill:rgb(2.352941%,2.352941%,2.352941%);fill-opacity:1;" d="M 20.796875 25.347656 C 21.183594 25.210938 21.652344 25.070312 22.003906 25.371094 C 22.164062 25.84375 22.058594 26.34375 22.097656 26.832031 C 22.183594 26.898438 22.292969 26.921875 22.390625 26.964844 C 22.195312 27.011719 21.992188 27.027344 21.828125 26.886719 C 21.703125 26.902344 21.582031 26.914062 21.457031 26.929688 C 21.457031 26.964844 21.460938 27.035156 21.460938 27.070312 C 21.457031 27.039062 21.445312 26.972656 21.441406 26.941406 C 21.125 27.042969 20.777344 26.90625 20.640625 26.613281 C 20.753906 26.460938 20.859375 26.28125 21.054688 26.226562 C 21.050781 26.207031 21.039062 26.171875 21.03125 26.152344 C 21.3125 26.21875 21.59375 26.074219 21.878906 26.070312 C 21.871094 25.824219 21.855469 25.566406 21.730469 25.347656 C 21.480469 25.167969 21.167969 25.296875 20.933594 25.445312 C 20.882812 25.558594 20.828125 25.671875 20.78125 25.789062 C 20.785156 25.640625 20.785156 25.496094 20.796875 25.347656 M 21.175781 26.238281 C 20.917969 26.316406 20.859375 26.730469 21.097656 26.859375 C 21.347656 26.96875 21.605469 26.832031 21.855469 26.796875 C 21.855469 26.578125 21.859375 26.355469 21.855469 26.136719 C 21.625 26.144531 21.390625 26.152344 21.175781 26.238281 Z M 21.175781 26.238281 "/>
<path style=" stroke:none;fill-rule:nonzero;fill:rgb(2.352941%,2.352941%,2.352941%);fill-opacity:1;" d="M 25.101562 25.398438 C 25.367188 25.15625 25.824219 25.085938 26.105469 25.339844 C 26.308594 25.511719 26.328125 25.800781 26.347656 26.050781 C 25.90625 26.039062 25.460938 26.042969 25.019531 26.046875 C 25.050781 26.363281 25.105469 26.734375 25.394531 26.921875 C 25.671875 26.949219 25.945312 26.898438 26.214844 26.851562 C 25.785156 27.132812 24.992188 27.050781 24.851562 26.476562 C 24.792969 26.109375 24.796875 25.65625 25.101562 25.398438 M 25.027344 25.964844 C 25.402344 25.960938 25.773438 25.960938 26.144531 25.960938 C 26.105469 25.695312 26.050781 25.304688 25.71875 25.269531 C 25.328125 25.226562 25.117188 25.644531 25.027344 25.964844 Z M 25.027344 25.964844 "/>
<path style=" stroke:none;fill-rule:nonzero;fill:rgb(2.352941%,2.352941%,2.352941%);fill-opacity:1;" d="M 27.148438 25.257812 C 27.421875 25.128906 27.738281 25.179688 28.007812 25.296875 C 28.003906 25.464844 28 25.632812 27.980469 25.800781 C 27.917969 25.660156 27.921875 25.492188 27.835938 25.359375 C 27.71875 25.289062 27.585938 25.257812 27.460938 25.214844 C 27.460938 25.242188 27.46875 25.296875 27.472656 25.324219 L 27.335938 25.226562 C 27.332031 25.277344 27.324219 25.378906 27.320312 25.429688 C 27.300781 25.402344 27.265625 25.34375 27.246094 25.316406 C 26.773438 25.597656 26.769531 26.277344 26.988281 26.722656 C 27.222656 27.066406 27.703125 26.886719 28.035156 26.832031 C 27.71875 27.050781 27.238281 27.054688 26.902344 26.859375 C 26.429688 26.433594 26.542969 25.507812 27.148438 25.257812 Z M 27.148438 25.257812 "/>
<path style=" stroke:none;fill-rule:nonzero;fill:rgb(2.352941%,2.352941%,2.352941%);fill-opacity:1;" d="M 58.898438 25.34375 C 59.152344 25.128906 59.515625 25.167969 59.808594 25.265625 C 59.796875 25.414062 59.792969 25.566406 59.789062 25.714844 C 59.734375 25.578125 59.683594 25.441406 59.636719 25.304688 C 59.4375 25.238281 59.203125 25.222656 59.058594 25.402344 C 58.976562 25.535156 58.90625 25.792969 59.101562 25.867188 C 59.339844 25.976562 59.613281 26.03125 59.816406 26.203125 C 60.015625 26.441406 59.898438 26.847656 59.597656 26.929688 C 59.308594 26.972656 59.003906 26.980469 58.726562 26.878906 C 58.714844 26.722656 58.65625 26.550781 58.753906 26.410156 C 58.761719 26.476562 58.777344 26.613281 58.785156 26.679688 C 58.984375 26.992188 59.589844 27 59.675781 26.59375 C 59.746094 26.214844 59.269531 26.183594 59.023438 26.066406 C 58.714844 25.984375 58.667969 25.535156 58.898438 25.34375 Z M 58.898438 25.34375 "/>
<path style=" stroke:none;fill-rule:nonzero;fill:rgb(1.568627%,1.568627%,1.568627%);fill-opacity:1;" d="M 35.578125 25.207031 C 35.992188 25.199219 36.425781 25.144531 36.828125 25.265625 C 36.6875 25.292969 36.546875 25.304688 36.40625 25.316406 C 36.625 25.597656 36.625 26.082031 36.289062 26.273438 C 36.175781 26.347656 35.941406 26.316406 35.941406 26.488281 C 35.933594 26.457031 35.917969 26.390625 35.910156 26.355469 C 35.863281 26.386719 35.773438 26.449219 35.726562 26.476562 L 35.8125 26.347656 C 35.714844 26.355469 35.527344 26.378906 35.429688 26.390625 C 35.519531 26.902344 36.109375 26.808594 36.476562 26.957031 C 36.792969 27.046875 36.839844 27.511719 36.582031 27.699219 C 36.25 27.929688 35.832031 27.792969 35.460938 27.816406 C 35.214844 27.761719 35.03125 27.488281 35.070312 27.238281 C 35.132812 27.050781 35.285156 26.921875 35.398438 26.773438 C 35.339844 26.609375 35.339844 26.4375 35.316406 26.269531 C 35.253906 26.054688 35.113281 25.847656 35.179688 25.617188 C 35.234375 25.417969 35.421875 25.316406 35.578125 25.207031 M 35.628906 25.261719 C 35.339844 25.53125 35.34375 25.976562 35.566406 26.289062 C 35.742188 26.285156 35.949219 26.351562 36.105469 26.234375 C 36.441406 26.03125 36.425781 25.433594 36.0625 25.269531 C 35.925781 25.1875 35.769531 25.253906 35.628906 25.261719 M 35.472656 26.808594 C 35.332031 27.078125 35.238281 27.398438 35.40625 27.683594 C 35.714844 27.773438 36.089844 27.867188 36.371094 27.65625 C 36.5 27.570312 36.515625 27.410156 36.558594 27.273438 C 36.449219 27.132812 36.332031 26.964844 36.144531 26.929688 C 35.917969 26.894531 35.695312 26.863281 35.472656 26.808594 Z M 35.472656 26.808594 "/>
<path style=" stroke:none;fill-rule:nonzero;fill:rgb(1.568627%,1.568627%,1.568627%);fill-opacity:1;" d="M 38.003906 25.433594 C 38.304688 25.210938 38.746094 25.109375 39.101562 25.265625 C 39.335938 25.359375 39.34375 25.636719 39.359375 25.851562 C 39.367188 26.191406 39.34375 26.53125 39.367188 26.871094 C 39.464844 26.902344 39.5625 26.933594 39.660156 26.96875 C 39.4375 27.015625 39.214844 26.945312 38.996094 26.90625 C 38.753906 26.933594 38.507812 27.054688 38.265625 26.957031 C 38.0625 26.90625 38.023438 26.675781 37.941406 26.515625 C 38.214844 26.148438 38.710938 26.132812 39.128906 26.117188 C 39.132812 25.84375 39.148438 25.542969 38.972656 25.316406 C 38.683594 25.179688 38.382812 25.34375 38.132812 25.480469 C 38.136719 25.550781 38.144531 25.683594 38.148438 25.75 C 38.125 25.753906 38.078125 25.753906 38.054688 25.757812 C 38.042969 25.648438 38.027344 25.539062 38.003906 25.433594 M 38.367188 26.265625 C 38.164062 26.414062 38.1875 26.714844 38.355469 26.882812 C 38.613281 26.988281 38.875 26.847656 39.128906 26.792969 C 39.128906 26.578125 39.128906 26.371094 39.125 26.160156 C 38.871094 26.179688 38.601562 26.144531 38.367188 26.265625 Z M 38.367188 26.265625 "/>
<path style=" stroke:none;fill-rule:nonzero;fill:rgb(1.568627%,1.568627%,1.568627%);fill-opacity:1;" d="M 41.144531 25.324219 C 41.480469 25.183594 41.96875 25.066406 42.234375 25.398438 C 42.445312 25.820312 42.257812 26.308594 42.339844 26.757812 C 42.339844 26.894531 42.496094 26.910156 42.585938 26.972656 C 42.386719 26.980469 42.195312 26.953125 42.003906 26.929688 C 41.710938 26.929688 41.394531 27.097656 41.128906 26.910156 C 40.9375 26.761719 40.976562 26.5 41.070312 26.308594 C 41.394531 26.171875 41.753906 26.164062 42.097656 26.117188 C 42.09375 25.839844 42.144531 25.5 41.914062 25.296875 C 41.5625 25.183594 41.105469 25.394531 41.054688 25.785156 C 41.027344 25.628906 40.933594 25.390625 41.144531 25.324219 M 41.289062 26.304688 C 41.121094 26.488281 41.242188 26.734375 41.320312 26.929688 C 41.589844 26.933594 41.851562 26.886719 42.101562 26.785156 C 42.097656 26.574219 42.097656 26.363281 42.09375 26.152344 C 41.828125 26.199219 41.546875 26.203125 41.289062 26.304688 Z M 41.289062 26.304688 "/>
<path style=" stroke:none;fill-rule:nonzero;fill:rgb(1.568627%,1.568627%,1.568627%);fill-opacity:1;" d="M 47.65625 25.246094 C 47.898438 25.175781 48.152344 25.183594 48.394531 25.230469 C 48.398438 25.386719 48.402344 25.542969 48.40625 25.699219 C 48.351562 25.550781 48.285156 25.410156 48.191406 25.289062 C 48.128906 25.273438 47.996094 25.25 47.929688 25.238281 C 47.828125 25.28125 47.738281 25.34375 47.65625 25.417969 C 47.683594 25.4375 47.738281 25.476562 47.765625 25.496094 C 47.589844 25.453125 47.582031 25.671875 47.550781 25.789062 C 47.828125 25.921875 48.128906 26.003906 48.386719 26.175781 C 48.664062 26.40625 48.46875 26.945312 48.109375 26.949219 C 47.871094 26.960938 47.625 26.972656 47.394531 26.894531 C 47.261719 26.769531 47.300781 26.566406 47.300781 26.402344 C 47.398438 26.625 47.476562 26.929688 47.792969 26.898438 C 47.8125 26.777344 47.847656 26.753906 47.859375 26.890625 C 48.152344 26.949219 48.371094 26.632812 48.246094 26.375 C 48.058594 26.121094 47.679688 26.164062 47.457031 25.953125 C 47.261719 25.734375 47.378906 25.332031 47.65625 25.246094 Z M 47.65625 25.246094 "/>
<path style=" stroke:none;fill-rule:nonzero;fill:rgb(1.568627%,1.568627%,1.568627%);fill-opacity:1;" d="M 49.898438 25.242188 C 50.046875 25.222656 50.191406 25.207031 50.339844 25.191406 C 50.34375 25.234375 50.34375 25.328125 50.34375 25.375 C 50.667969 25.203125 51.074219 25.117188 51.394531 25.339844 C 51.714844 25.222656 52.25 25.023438 52.417969 25.449219 C 52.539062 25.925781 52.453125 26.425781 52.480469 26.914062 C 52.550781 26.925781 52.691406 26.957031 52.757812 26.96875 C 52.511719 26.996094 52.257812 26.984375 52.011719 26.972656 C 52.070312 26.953125 52.1875 26.917969 52.246094 26.898438 C 52.246094 26.421875 52.304688 25.929688 52.183594 25.464844 C 52.054688 25.144531 51.671875 25.328125 51.425781 25.367188 C 51.425781 25.871094 51.4375 26.371094 51.433594 26.871094 C 51.542969 26.894531 51.660156 26.921875 51.773438 26.945312 C 51.527344 26.945312 51.28125 26.96875 51.035156 26.960938 C 51.074219 26.933594 51.144531 26.882812 51.183594 26.859375 C 51.222656 26.441406 51.21875 26.019531 51.1875 25.601562 C 51.183594 25.441406 51.054688 25.273438 50.882812 25.300781 C 50.714844 25.324219 50.550781 25.378906 50.386719 25.417969 C 50.371094 25.867188 50.355469 26.316406 50.363281 26.761719 C 50.316406 26.914062 50.492188 26.921875 50.578125 26.976562 C 50.375 26.976562 50.171875 26.992188 49.96875 27.015625 L 49.984375 26.894531 C 50.023438 26.902344 50.105469 26.917969 50.144531 26.921875 C 50.132812 26.378906 50.140625 25.835938 50.136719 25.292969 C 50.058594 25.277344 49.976562 25.257812 49.898438 25.242188 Z M 49.898438 25.242188 "/>
</g>
</svg>
