<?xml version="1.0" encoding="UTF-8"?>
<svg xmlns="http://www.w3.org/2000/svg" xmlns:xlink="http://www.w3.org/1999/xlink" width="111px" height="31px" viewBox="0 0 88 31" version="1.1">
<defs>
<clipPath id="clip1">
  <path d="M 0 18.703125 L 87.890625 18.703125 L 87.890625 25.386719 L 0 25.386719 Z M 0 18.703125 "/>
</clipPath>
<clipPath id="clip2">
  <path d="M 20.207031 26.964844 L 67.6875 26.964844 L 67.6875 31 L 20.207031 31 Z M 20.207031 26.964844 "/>
</clipPath>
<clipPath id="clip3">
  <path d="M 44 0.046875 L 49 0.046875 L 49 8 L 44 8 Z M 44 0.046875 "/>
</clipPath>
<clipPath id="clip4">
  <path d="M 42 6 L 52.300781 6 L 52.300781 17.125 L 42 17.125 Z M 42 6 "/>
</clipPath>
<clipPath id="clip5">
  <path d="M 35.589844 9 L 38 9 L 38 14 L 35.589844 14 Z M 35.589844 9 "/>
</clipPath>
<clipPath id="clip6">
  <path d="M 35.589844 8 L 38 8 L 38 11 L 35.589844 11 Z M 35.589844 8 "/>
</clipPath>
<clipPath id="clip7">
  <path d="M 42 0.046875 L 45 0.046875 L 45 6 L 42 6 Z M 42 0.046875 "/>
</clipPath>
<clipPath id="clip8">
  <path d="M 54 16 L 87.890625 16 L 87.890625 17 L 54 17 Z M 54 16 "/>
</clipPath>
<clipPath id="clip9">
  <path d="M 54 15 L 87.890625 15 L 87.890625 16 L 54 16 Z M 54 15 "/>
</clipPath>
</defs>
<g id="surface1">
<g clip-path="url(#clip1)" clip-rule="nonzero">
<path style=" stroke:none;fill-rule:nonzero;fill:rgb(53.72549%,57.647059%,61.960784%);fill-opacity:1;" d="M 2.640625 25.386719 C 2.066406 25.386719 1.589844 25.304688 1.203125 25.132812 C 0.816406 24.960938 0.523438 24.738281 0.324219 24.464844 C 0.125 24.1875 0.015625 23.898438 0.00390625 23.597656 C 0.00390625 23.539062 0.0234375 23.496094 0.0585938 23.457031 C 0.0976562 23.421875 0.144531 23.402344 0.199219 23.402344 L 1.023438 23.402344 C 1.101562 23.402344 1.164062 23.417969 1.203125 23.453125 C 1.242188 23.488281 1.277344 23.527344 1.308594 23.578125 C 1.347656 23.695312 1.417969 23.8125 1.523438 23.925781 C 1.625 24.039062 1.769531 24.136719 1.953125 24.210938 C 2.132812 24.285156 2.363281 24.320312 2.640625 24.320312 C 3.085938 24.320312 3.417969 24.246094 3.636719 24.097656 C 3.855469 23.949219 3.964844 23.75 3.964844 23.496094 C 3.964844 23.316406 3.90625 23.171875 3.789062 23.0625 C 3.671875 22.953125 3.492188 22.855469 3.246094 22.765625 C 3.003906 22.675781 2.679688 22.582031 2.28125 22.484375 C 1.816406 22.371094 1.429688 22.238281 1.121094 22.078125 C 0.808594 21.921875 0.574219 21.722656 0.417969 21.480469 C 0.257812 21.238281 0.179688 20.933594 0.179688 20.5625 C 0.179688 20.203125 0.277344 19.882812 0.472656 19.605469 C 0.667969 19.328125 0.945312 19.105469 1.304688 18.945312 C 1.664062 18.785156 2.09375 18.703125 2.59375 18.703125 C 2.996094 18.703125 3.351562 18.757812 3.660156 18.867188 C 3.96875 18.976562 4.222656 19.117188 4.425781 19.292969 C 4.628906 19.46875 4.785156 19.660156 4.894531 19.859375 C 5 20.0625 5.058594 20.257812 5.066406 20.449219 C 5.066406 20.5 5.046875 20.542969 5.015625 20.582031 C 4.980469 20.625 4.933594 20.644531 4.871094 20.644531 L 4.011719 20.644531 C 3.960938 20.644531 3.910156 20.632812 3.863281 20.609375 C 3.8125 20.582031 3.773438 20.535156 3.742188 20.46875 C 3.703125 20.277344 3.585938 20.113281 3.382812 19.976562 C 3.175781 19.839844 2.914062 19.773438 2.59375 19.773438 C 2.261719 19.773438 1.992188 19.832031 1.789062 19.957031 C 1.585938 20.082031 1.484375 20.273438 1.484375 20.535156 C 1.484375 20.707031 1.535156 20.851562 1.636719 20.964844 C 1.738281 21.078125 1.902344 21.179688 2.128906 21.265625 C 2.351562 21.351562 2.648438 21.445312 3.019531 21.546875 C 3.542969 21.664062 3.972656 21.800781 4.304688 21.953125 C 4.640625 22.109375 4.882812 22.304688 5.035156 22.542969 C 5.191406 22.78125 5.269531 23.082031 5.269531 23.449219 C 5.269531 23.855469 5.160156 24.203125 4.941406 24.492188 C 4.722656 24.78125 4.414062 25 4.019531 25.15625 C 3.625 25.3125 3.164062 25.386719 2.640625 25.386719 Z M 7.433594 25.296875 L 6.554688 25.296875 C 6.492188 25.296875 6.441406 25.273438 6.398438 25.230469 C 6.351562 25.1875 6.332031 25.132812 6.332031 25.074219 L 6.332031 19.03125 C 6.332031 18.960938 6.351562 18.90625 6.398438 18.863281 C 6.441406 18.820312 6.492188 18.796875 6.554688 18.796875 L 9.03125 18.796875 C 9.515625 18.796875 9.933594 18.875 10.289062 19.027344 C 10.648438 19.175781 10.925781 19.40625 11.125 19.710938 C 11.320312 20.019531 11.417969 20.398438 11.417969 20.859375 C 11.417969 21.324219 11.320312 21.703125 11.125 22.003906 C 10.925781 22.304688 10.648438 22.527344 10.289062 22.675781 C 9.933594 22.828125 9.515625 22.902344 9.03125 22.902344 L 7.65625 22.902344 L 7.65625 25.074219 C 7.65625 25.132812 7.632812 25.1875 7.59375 25.230469 C 7.554688 25.273438 7.5 25.296875 7.433594 25.296875 Z M 7.636719 19.828125 L 7.636719 21.871094 L 8.988281 21.871094 C 9.34375 21.871094 9.617188 21.785156 9.808594 21.613281 C 10 21.445312 10.097656 21.191406 10.097656 20.859375 C 10.097656 20.546875 10.007812 20.300781 9.828125 20.109375 C 9.648438 19.921875 9.367188 19.828125 8.988281 19.828125 Z M 13.519531 25.296875 L 12.648438 25.296875 C 12.585938 25.296875 12.535156 25.273438 12.492188 25.230469 C 12.449219 25.1875 12.425781 25.132812 12.425781 25.074219 L 12.425781 19.019531 C 12.425781 18.957031 12.449219 18.90625 12.492188 18.863281 C 12.535156 18.820312 12.585938 18.796875 12.648438 18.796875 L 13.519531 18.796875 C 13.585938 18.796875 13.640625 18.820312 13.679688 18.863281 C 13.71875 18.90625 13.742188 18.957031 13.742188 19.019531 L 13.742188 25.074219 C 13.742188 25.132812 13.71875 25.1875 13.679688 25.230469 C 13.640625 25.273438 13.585938 25.296875 13.519531 25.296875 Z M 16.226562 25.296875 L 15.414062 25.296875 C 15.351562 25.296875 15.300781 25.273438 15.257812 25.230469 C 15.210938 25.1875 15.191406 25.132812 15.191406 25.074219 L 15.191406 19.03125 C 15.191406 18.960938 15.210938 18.90625 15.257812 18.863281 C 15.300781 18.820312 15.351562 18.796875 15.414062 18.796875 L 16.226562 18.796875 C 16.296875 18.796875 16.351562 18.820312 16.394531 18.863281 C 16.4375 18.90625 16.457031 18.960938 16.457031 19.03125 L 16.457031 21.203125 L 18.546875 18.964844 C 18.574219 18.933594 18.617188 18.898438 18.675781 18.855469 C 18.734375 18.816406 18.8125 18.796875 18.910156 18.796875 L 19.824219 18.796875 C 19.875 18.796875 19.917969 18.816406 19.960938 18.851562 C 20 18.890625 20.019531 18.9375 20.019531 18.992188 C 20.019531 19.035156 20.007812 19.074219 19.984375 19.105469 L 17.4375 21.90625 L 20.160156 24.980469 C 20.1875 25.015625 20.203125 25.058594 20.203125 25.101562 C 20.203125 25.15625 20.183594 25.203125 20.144531 25.238281 C 20.105469 25.277344 20.058594 25.296875 20.011719 25.296875 L 19.058594 25.296875 C 18.953125 25.296875 18.871094 25.273438 18.8125 25.226562 C 18.753906 25.179688 18.714844 25.148438 18.695312 25.128906 L 16.457031 22.667969 L 16.457031 25.074219 C 16.457031 25.132812 16.4375 25.1875 16.394531 25.230469 C 16.351562 25.273438 16.296875 25.296875 16.226562 25.296875 Z M 25.402344 25.296875 L 21.257812 25.296875 C 21.199219 25.296875 21.144531 25.273438 21.101562 25.230469 C 21.058594 25.1875 21.035156 25.132812 21.035156 25.074219 L 21.035156 19.03125 C 21.035156 18.960938 21.058594 18.90625 21.101562 18.863281 C 21.144531 18.820312 21.199219 18.796875 21.257812 18.796875 L 25.328125 18.796875 C 25.398438 18.796875 25.453125 18.820312 25.496094 18.863281 C 25.539062 18.90625 25.558594 18.960938 25.558594 19.03125 L 25.558594 19.640625 C 25.558594 19.703125 25.539062 19.757812 25.496094 19.800781 C 25.453125 19.84375 25.398438 19.863281 25.328125 19.863281 L 22.285156 19.863281 L 22.285156 21.507812 L 25.125 21.507812 C 25.191406 21.507812 25.25 21.527344 25.292969 21.566406 C 25.335938 21.609375 25.355469 21.664062 25.355469 21.730469 L 25.355469 22.304688 C 25.355469 22.375 25.335938 22.429688 25.292969 22.46875 C 25.25 22.507812 25.191406 22.527344 25.125 22.527344 L 22.285156 22.527344 L 22.285156 24.226562 L 25.402344 24.226562 C 25.46875 24.226562 25.527344 24.25 25.570312 24.292969 C 25.613281 24.335938 25.632812 24.390625 25.632812 24.460938 L 25.632812 25.074219 C 25.632812 25.132812 25.613281 25.1875 25.570312 25.230469 C 25.527344 25.273438 25.46875 25.296875 25.402344 25.296875 Z M 31.433594 25.296875 L 29.128906 25.296875 C 29.070312 25.296875 29.015625 25.273438 28.972656 25.230469 C 28.929688 25.1875 28.910156 25.132812 28.910156 25.074219 L 28.910156 19.03125 C 28.910156 18.960938 28.929688 18.90625 28.972656 18.863281 C 29.015625 18.820312 29.070312 18.796875 29.128906 18.796875 L 31.386719 18.796875 C 32.011719 18.796875 32.523438 18.894531 32.925781 19.085938 C 33.332031 19.277344 33.636719 19.5625 33.84375 19.9375 C 34.050781 20.316406 34.15625 20.777344 34.164062 21.324219 C 34.175781 21.59375 34.179688 21.835938 34.179688 22.046875 C 34.179688 22.257812 34.175781 22.496094 34.164062 22.761719 C 34.148438 23.335938 34.046875 23.8125 33.847656 24.183594 C 33.652344 24.558594 33.351562 24.839844 32.953125 25.019531 C 32.558594 25.203125 32.050781 25.296875 31.433594 25.296875 Z M 30.195312 19.863281 L 30.195312 24.226562 L 31.386719 24.226562 C 31.734375 24.226562 32.011719 24.179688 32.230469 24.078125 C 32.445312 23.980469 32.601562 23.820312 32.703125 23.601562 C 32.808594 23.382812 32.859375 23.09375 32.867188 22.734375 C 32.875 22.546875 32.878906 22.386719 32.878906 22.246094 C 32.882812 22.105469 32.882812 21.96875 32.878906 21.828125 C 32.878906 21.6875 32.875 21.53125 32.867188 21.351562 C 32.855469 20.84375 32.730469 20.46875 32.488281 20.226562 C 32.246094 19.984375 31.867188 19.863281 31.339844 19.863281 Z M 39.773438 25.296875 L 35.632812 25.296875 C 35.570312 25.296875 35.515625 25.273438 35.472656 25.230469 C 35.429688 25.1875 35.410156 25.132812 35.410156 25.074219 L 35.410156 19.03125 C 35.410156 18.960938 35.429688 18.90625 35.472656 18.863281 C 35.515625 18.820312 35.570312 18.796875 35.632812 18.796875 L 39.699219 18.796875 C 39.769531 18.796875 39.824219 18.820312 39.867188 18.863281 C 39.910156 18.90625 39.933594 18.960938 39.933594 19.03125 L 39.933594 19.640625 C 39.933594 19.703125 39.910156 19.757812 39.867188 19.800781 C 39.824219 19.84375 39.769531 19.863281 39.699219 19.863281 L 36.65625 19.863281 L 36.65625 21.507812 L 39.496094 21.507812 C 39.566406 21.507812 39.621094 21.527344 39.664062 21.566406 C 39.707031 21.609375 39.730469 21.664062 39.730469 21.730469 L 39.730469 22.304688 C 39.730469 22.375 39.707031 22.429688 39.664062 22.46875 C 39.621094 22.507812 39.566406 22.527344 39.496094 22.527344 L 36.65625 22.527344 L 36.65625 24.226562 L 39.773438 24.226562 C 39.84375 24.226562 39.898438 24.25 39.941406 24.292969 C 39.984375 24.335938 40.007812 24.390625 40.007812 24.460938 L 40.007812 25.074219 C 40.007812 25.132812 39.984375 25.1875 39.941406 25.230469 C 39.898438 25.273438 39.84375 25.296875 39.773438 25.296875 Z M 44.066406 25.296875 L 43.050781 25.296875 C 42.949219 25.296875 42.875 25.269531 42.816406 25.222656 C 42.761719 25.171875 42.722656 25.109375 42.699219 25.035156 L 40.71875 19.074219 C 40.707031 19.042969 40.699219 19.015625 40.699219 18.992188 C 40.699219 18.9375 40.71875 18.890625 40.753906 18.851562 C 40.792969 18.816406 40.839844 18.796875 40.894531 18.796875 L 41.707031 18.796875 C 41.792969 18.796875 41.859375 18.820312 41.90625 18.867188 C 41.953125 18.914062 41.984375 18.957031 41.996094 19 L 43.558594 23.78125 L 45.121094 19 C 45.132812 18.957031 45.164062 18.914062 45.210938 18.867188 C 45.253906 18.820312 45.320312 18.796875 45.40625 18.796875 L 46.222656 18.796875 C 46.269531 18.796875 46.316406 18.816406 46.355469 18.851562 C 46.398438 18.890625 46.417969 18.9375 46.417969 18.992188 C 46.417969 19.015625 46.410156 19.042969 46.398438 19.074219 L 44.417969 25.035156 C 44.394531 25.109375 44.355469 25.171875 44.296875 25.222656 C 44.242188 25.269531 44.164062 25.296875 44.066406 25.296875 Z M 51.761719 25.296875 L 47.617188 25.296875 C 47.558594 25.296875 47.503906 25.273438 47.460938 25.230469 C 47.417969 25.1875 47.398438 25.132812 47.398438 25.074219 L 47.398438 19.03125 C 47.398438 18.960938 47.417969 18.90625 47.460938 18.863281 C 47.503906 18.820312 47.558594 18.796875 47.617188 18.796875 L 51.6875 18.796875 C 51.757812 18.796875 51.8125 18.820312 51.855469 18.863281 C 51.898438 18.90625 51.921875 18.960938 51.921875 19.03125 L 51.921875 19.640625 C 51.921875 19.703125 51.898438 19.757812 51.855469 19.800781 C 51.8125 19.84375 51.757812 19.863281 51.6875 19.863281 L 48.644531 19.863281 L 48.644531 21.507812 L 51.484375 21.507812 C 51.554688 21.507812 51.609375 21.527344 51.652344 21.566406 C 51.695312 21.609375 51.714844 21.664062 51.714844 21.730469 L 51.714844 22.304688 C 51.714844 22.375 51.695312 22.429688 51.652344 22.46875 C 51.609375 22.507812 51.554688 22.527344 51.484375 22.527344 L 48.644531 22.527344 L 48.644531 24.226562 L 51.761719 24.226562 C 51.832031 24.226562 51.886719 24.25 51.929688 24.292969 C 51.972656 24.335938 51.992188 24.390625 51.992188 24.460938 L 51.992188 25.074219 C 51.992188 25.132812 51.972656 25.1875 51.929688 25.230469 C 51.886719 25.273438 51.832031 25.296875 51.761719 25.296875 Z M 57.386719 25.296875 L 53.371094 25.296875 C 53.308594 25.296875 53.257812 25.273438 53.214844 25.230469 C 53.171875 25.1875 53.148438 25.132812 53.148438 25.074219 L 53.148438 19.019531 C 53.148438 18.957031 53.171875 18.90625 53.214844 18.863281 C 53.257812 18.820312 53.308594 18.796875 53.371094 18.796875 L 54.230469 18.796875 C 54.292969 18.796875 54.347656 18.820312 54.390625 18.863281 C 54.433594 18.90625 54.453125 18.957031 54.453125 19.019531 L 54.453125 24.191406 L 57.386719 24.191406 C 57.453125 24.191406 57.511719 24.210938 57.554688 24.253906 C 57.597656 24.300781 57.617188 24.355469 57.617188 24.421875 L 57.617188 25.074219 C 57.617188 25.132812 57.597656 25.1875 57.554688 25.230469 C 57.511719 25.273438 57.453125 25.296875 57.386719 25.296875 Z M 61 25.386719 C 60.453125 25.386719 59.980469 25.296875 59.585938 25.113281 C 59.191406 24.929688 58.882812 24.648438 58.660156 24.269531 C 58.4375 23.890625 58.320312 23.414062 58.300781 22.84375 C 58.292969 22.578125 58.292969 22.316406 58.292969 22.054688 C 58.292969 21.796875 58.292969 21.53125 58.300781 21.257812 C 58.320312 20.695312 58.441406 20.222656 58.671875 19.847656 C 58.898438 19.46875 59.210938 19.183594 59.609375 18.992188 C 60.007812 18.800781 60.472656 18.703125 61 18.703125 C 61.53125 18.703125 61.996094 18.800781 62.398438 18.992188 C 62.796875 19.183594 63.113281 19.46875 63.339844 19.847656 C 63.570312 20.222656 63.691406 20.695312 63.710938 21.257812 C 63.722656 21.53125 63.730469 21.796875 63.730469 22.054688 C 63.730469 22.316406 63.722656 22.578125 63.710938 22.84375 C 63.691406 23.414062 63.574219 23.890625 63.351562 24.269531 C 63.128906 24.648438 62.820312 24.929688 62.421875 25.113281 C 62.023438 25.296875 61.550781 25.386719 61 25.386719 Z M 61 24.320312 C 61.402344 24.320312 61.730469 24.203125 61.980469 23.960938 C 62.234375 23.726562 62.371094 23.335938 62.390625 22.796875 C 62.402344 22.527344 62.40625 22.273438 62.40625 22.039062 C 62.40625 21.808594 62.402344 21.5625 62.390625 21.292969 C 62.375 20.933594 62.308594 20.644531 62.191406 20.417969 C 62.070312 20.191406 61.90625 20.027344 61.703125 19.925781 C 61.5 19.824219 61.265625 19.773438 61 19.773438 C 60.742188 19.773438 60.511719 19.824219 60.308594 19.925781 C 60.105469 20.027344 59.941406 20.191406 59.824219 20.417969 C 59.703125 20.644531 59.636719 20.933594 59.625 21.292969 C 59.617188 21.5625 59.613281 21.808594 59.613281 22.039062 C 59.613281 22.273438 59.617188 22.527344 59.625 22.796875 C 59.640625 23.335938 59.777344 23.726562 60.03125 23.960938 C 60.28125 24.203125 60.605469 24.320312 61 24.320312 Z M 66.042969 25.296875 L 65.164062 25.296875 C 65.101562 25.296875 65.050781 25.273438 65.007812 25.230469 C 64.964844 25.1875 64.941406 25.132812 64.941406 25.074219 L 64.941406 19.03125 C 64.941406 18.960938 64.964844 18.90625 65.007812 18.863281 C 65.050781 18.820312 65.101562 18.796875 65.164062 18.796875 L 67.644531 18.796875 C 68.125 18.796875 68.542969 18.875 68.902344 19.027344 C 69.257812 19.175781 69.535156 19.40625 69.734375 19.710938 C 69.929688 20.019531 70.027344 20.398438 70.027344 20.859375 C 70.027344 21.324219 69.929688 21.703125 69.734375 22.003906 C 69.535156 22.304688 69.257812 22.527344 68.902344 22.675781 C 68.542969 22.828125 68.125 22.902344 67.644531 22.902344 L 66.265625 22.902344 L 66.265625 25.074219 C 66.265625 25.132812 66.246094 25.1875 66.207031 25.230469 C 66.164062 25.273438 66.109375 25.296875 66.042969 25.296875 Z M 66.246094 19.828125 L 66.246094 21.871094 L 67.597656 21.871094 C 67.953125 21.871094 68.226562 21.785156 68.417969 21.613281 C 68.609375 21.445312 68.707031 21.191406 68.707031 20.859375 C 68.707031 20.546875 68.617188 20.300781 68.4375 20.109375 C 68.257812 19.921875 67.980469 19.828125 67.597656 19.828125 Z M 75.402344 25.296875 L 71.257812 25.296875 C 71.199219 25.296875 71.144531 25.273438 71.101562 25.230469 C 71.058594 25.1875 71.039062 25.132812 71.039062 25.074219 L 71.039062 19.03125 C 71.039062 18.960938 71.058594 18.90625 71.101562 18.863281 C 71.144531 18.820312 71.199219 18.796875 71.257812 18.796875 L 75.328125 18.796875 C 75.398438 18.796875 75.453125 18.820312 75.496094 18.863281 C 75.539062 18.90625 75.558594 18.960938 75.558594 19.03125 L 75.558594 19.640625 C 75.558594 19.703125 75.539062 19.757812 75.496094 19.800781 C 75.453125 19.84375 75.398438 19.863281 75.328125 19.863281 L 72.285156 19.863281 L 72.285156 21.507812 L 75.125 21.507812 C 75.195312 21.507812 75.25 21.527344 75.292969 21.566406 C 75.335938 21.609375 75.355469 21.664062 75.355469 21.730469 L 75.355469 22.304688 C 75.355469 22.375 75.335938 22.429688 75.292969 22.46875 C 75.25 22.507812 75.195312 22.527344 75.125 22.527344 L 72.285156 22.527344 L 72.285156 24.226562 L 75.402344 24.226562 C 75.472656 24.226562 75.527344 24.25 75.570312 24.292969 C 75.613281 24.335938 75.632812 24.390625 75.632812 24.460938 L 75.632812 25.074219 C 75.632812 25.132812 75.613281 25.1875 75.570312 25.230469 C 75.527344 25.273438 75.472656 25.296875 75.402344 25.296875 Z M 77.855469 25.296875 L 77.011719 25.296875 C 76.949219 25.296875 76.898438 25.273438 76.855469 25.230469 C 76.8125 25.1875 76.789062 25.132812 76.789062 25.074219 L 76.789062 19.03125 C 76.789062 18.960938 76.8125 18.90625 76.855469 18.863281 C 76.898438 18.820312 76.949219 18.796875 77.011719 18.796875 L 79.410156 18.796875 C 80.15625 18.796875 80.742188 18.96875 81.175781 19.316406 C 81.605469 19.664062 81.824219 20.167969 81.824219 20.832031 C 81.824219 21.289062 81.710938 21.667969 81.484375 21.972656 C 81.257812 22.273438 80.960938 22.496094 80.582031 22.632812 L 81.933594 25 C 81.953125 25.035156 81.960938 25.070312 81.960938 25.101562 C 81.960938 25.15625 81.941406 25.203125 81.898438 25.238281 C 81.859375 25.277344 81.816406 25.296875 81.765625 25.296875 L 80.925781 25.296875 C 80.820312 25.296875 80.738281 25.269531 80.683594 25.210938 C 80.628906 25.15625 80.585938 25.101562 80.554688 25.042969 L 79.363281 22.84375 L 78.078125 22.84375 L 78.078125 25.074219 C 78.078125 25.132812 78.054688 25.1875 78.015625 25.230469 C 77.976562 25.273438 77.921875 25.296875 77.855469 25.296875 Z M 78.078125 19.828125 L 78.078125 21.796875 L 79.378906 21.796875 C 79.757812 21.796875 80.039062 21.710938 80.222656 21.539062 C 80.40625 21.371094 80.5 21.128906 80.5 20.820312 C 80.5 20.511719 80.410156 20.269531 80.226562 20.089844 C 80.042969 19.914062 79.761719 19.828125 79.378906 19.828125 Z M 85.261719 25.386719 C 84.6875 25.386719 84.207031 25.304688 83.824219 25.132812 C 83.4375 24.960938 83.144531 24.738281 82.945312 24.464844 C 82.746094 24.1875 82.636719 23.898438 82.625 23.597656 C 82.625 23.539062 82.644531 23.496094 82.679688 23.457031 C 82.71875 23.421875 82.765625 23.402344 82.820312 23.402344 L 83.644531 23.402344 C 83.722656 23.402344 83.785156 23.417969 83.824219 23.453125 C 83.863281 23.488281 83.898438 23.527344 83.929688 23.578125 C 83.964844 23.695312 84.039062 23.8125 84.140625 23.925781 C 84.246094 24.039062 84.390625 24.136719 84.574219 24.210938 C 84.753906 24.285156 84.984375 24.320312 85.261719 24.320312 C 85.707031 24.320312 86.039062 24.246094 86.257812 24.097656 C 86.476562 23.949219 86.585938 23.75 86.585938 23.496094 C 86.585938 23.316406 86.527344 23.171875 86.410156 23.0625 C 86.292969 22.953125 86.109375 22.855469 85.867188 22.765625 C 85.625 22.675781 85.300781 22.582031 84.902344 22.484375 C 84.4375 22.371094 84.050781 22.238281 83.742188 22.078125 C 83.429688 21.921875 83.195312 21.722656 83.039062 21.480469 C 82.878906 21.238281 82.800781 20.933594 82.800781 20.5625 C 82.800781 20.203125 82.898438 19.882812 83.09375 19.605469 C 83.285156 19.328125 83.5625 19.105469 83.925781 18.945312 C 84.285156 18.785156 84.714844 18.703125 85.214844 18.703125 C 85.617188 18.703125 85.96875 18.757812 86.277344 18.867188 C 86.585938 18.976562 86.84375 19.117188 87.046875 19.292969 C 87.25 19.46875 87.40625 19.660156 87.515625 19.859375 C 87.621094 20.0625 87.679688 20.257812 87.683594 20.449219 C 87.683594 20.5 87.667969 20.542969 87.636719 20.582031 C 87.601562 20.625 87.550781 20.644531 87.492188 20.644531 L 86.628906 20.644531 C 86.582031 20.644531 86.53125 20.632812 86.480469 20.609375 C 86.433594 20.582031 86.394531 20.535156 86.363281 20.46875 C 86.324219 20.277344 86.203125 20.113281 86 19.976562 C 85.796875 19.839844 85.535156 19.773438 85.214844 19.773438 C 84.882812 19.773438 84.613281 19.832031 84.410156 19.957031 C 84.207031 20.082031 84.105469 20.273438 84.105469 20.535156 C 84.105469 20.707031 84.15625 20.851562 84.257812 20.964844 C 84.359375 21.078125 84.523438 21.179688 84.75 21.265625 C 84.972656 21.351562 85.269531 21.445312 85.640625 21.546875 C 86.164062 21.664062 86.59375 21.800781 86.925781 21.953125 C 87.257812 22.109375 87.503906 22.304688 87.65625 22.542969 C 87.8125 22.78125 87.886719 23.082031 87.886719 23.449219 C 87.886719 23.855469 87.777344 24.203125 87.5625 24.492188 C 87.339844 24.78125 87.035156 25 86.640625 25.15625 C 86.246094 25.3125 85.785156 25.386719 85.261719 25.386719 Z M 85.261719 25.386719 "/>
</g>
<g clip-path="url(#clip2)" clip-rule="nonzero">
<path style=" stroke:none;fill-rule:nonzero;fill:rgb(87.058824%,87.058824%,87.058824%);fill-opacity:1;" d="M 20.210938 27.175781 L 21.035156 27.171875 C 21.035156 27.175781 21.039062 27.195312 21.039062 27.234375 L 20.757812 27.257812 L 20.757812 29.980469 L 21.894531 29.980469 L 21.976562 29.320312 L 22.054688 29.339844 L 21.992188 30.0625 L 21.035156 30.0625 L 20.210938 30.070312 L 20.214844 30.011719 L 20.425781 29.980469 C 20.453125 29.980469 20.472656 29.960938 20.476562 29.929688 L 20.476562 27.3125 C 20.472656 27.28125 20.453125 27.261719 20.425781 27.257812 L 20.214844 27.238281 Z M 23.613281 29.90625 L 23.601562 29.90625 C 23.355469 30.023438 23.113281 30.082031 22.878906 30.082031 C 22.515625 30.082031 22.320312 29.9375 22.300781 29.648438 C 22.296875 29.628906 22.296875 29.609375 22.296875 29.59375 C 22.296875 29.382812 22.433594 29.238281 22.710938 29.167969 C 22.875 29.132812 23.171875 29.089844 23.601562 29.039062 L 23.601562 28.675781 C 23.601562 28.5625 23.585938 28.460938 23.558594 28.378906 C 23.53125 28.296875 23.503906 28.234375 23.46875 28.195312 C 23.4375 28.15625 23.394531 28.125 23.339844 28.101562 C 23.277344 28.074219 23.203125 28.0625 23.121094 28.0625 C 23.039062 28.0625 22.949219 28.082031 22.84375 28.121094 C 22.691406 28.1875 22.558594 28.265625 22.441406 28.363281 L 22.421875 28.683594 L 22.34375 28.707031 L 22.34375 28.207031 L 22.386719 28.1875 C 22.601562 28.09375 22.765625 28.039062 22.875 28.019531 C 22.988281 28 23.070312 27.988281 23.125 27.988281 C 23.175781 27.988281 23.226562 27.988281 23.273438 27.992188 C 23.320312 27.992188 23.382812 28.003906 23.460938 28.027344 C 23.539062 28.050781 23.605469 28.082031 23.660156 28.121094 C 23.714844 28.160156 23.765625 28.21875 23.804688 28.300781 C 23.847656 28.378906 23.867188 28.476562 23.867188 28.585938 L 23.867188 29.847656 C 23.867188 29.933594 23.890625 29.976562 23.933594 29.976562 L 24.183594 29.988281 L 24.179688 30.050781 C 24.027344 30.074219 23.890625 30.085938 23.769531 30.085938 C 23.738281 30.082031 23.703125 30.066406 23.667969 30.03125 C 23.632812 30 23.613281 29.960938 23.613281 29.90625 Z M 22.953125 30.015625 C 23.15625 30.015625 23.375 29.941406 23.601562 29.800781 L 23.601562 29.117188 C 23.1875 29.132812 22.929688 29.15625 22.824219 29.191406 C 22.71875 29.226562 22.648438 29.277344 22.605469 29.351562 C 22.566406 29.425781 22.546875 29.496094 22.546875 29.570312 C 22.546875 29.582031 22.546875 29.597656 22.546875 29.609375 C 22.554688 29.753906 22.597656 29.855469 22.675781 29.917969 C 22.75 29.984375 22.84375 30.015625 22.953125 30.015625 Z M 26.683594 29.984375 L 26.84375 29.976562 L 26.855469 30.019531 C 26.851562 30.019531 26.832031 30.023438 26.796875 30.03125 C 26.714844 30.050781 26.625 30.058594 26.523438 30.058594 C 26.429688 30.054688 26.34375 30.039062 26.265625 30.011719 C 26.191406 29.988281 26.117188 29.929688 26.054688 29.847656 C 25.988281 29.761719 25.953125 29.65625 25.953125 29.523438 L 25.953125 28.074219 L 25.746094 28.074219 L 25.777344 28.039062 L 25.957031 28.003906 L 25.992188 27.605469 L 26.222656 27.585938 L 26.222656 28 L 26.71875 28 L 26.71875 28.074219 L 26.222656 28.074219 L 26.222656 29.453125 C 26.222656 29.664062 26.265625 29.804688 26.351562 29.875 C 26.441406 29.949219 26.550781 29.984375 26.683594 29.984375 Z M 27.292969 29.113281 C 27.292969 29.710938 27.523438 30.007812 27.984375 30.007812 C 28.105469 30.007812 28.234375 29.992188 28.371094 29.964844 C 28.507812 29.941406 28.59375 29.917969 28.632812 29.894531 L 28.664062 29.9375 C 28.597656 29.976562 28.496094 30.011719 28.351562 30.039062 C 28.207031 30.066406 28.074219 30.082031 27.957031 30.082031 C 27.835938 30.082031 27.730469 30.070312 27.636719 30.042969 C 27.539062 30.019531 27.445312 29.976562 27.34375 29.910156 C 27.246094 29.847656 27.167969 29.75 27.109375 29.613281 C 27.054688 29.480469 27.023438 29.3125 27.023438 29.117188 C 27.023438 28.753906 27.117188 28.476562 27.304688 28.285156 C 27.5 28.082031 27.726562 27.980469 27.984375 27.980469 C 28.242188 27.980469 28.4375 28.054688 28.574219 28.195312 C 28.710938 28.339844 28.777344 28.542969 28.777344 28.800781 C 28.777344 28.855469 28.773438 28.914062 28.765625 28.976562 L 27.296875 28.976562 C 27.292969 29.007812 27.292969 29.054688 27.292969 29.113281 Z M 28.535156 28.769531 C 28.535156 28.566406 28.488281 28.394531 28.398438 28.265625 C 28.308594 28.132812 28.183594 28.070312 28.027344 28.070312 C 27.824219 28.070312 27.652344 28.160156 27.515625 28.335938 C 27.402344 28.476562 27.332031 28.664062 27.304688 28.898438 L 28.53125 28.898438 C 28.535156 28.867188 28.535156 28.828125 28.535156 28.769531 Z M 30.15625 28.058594 C 29.921875 28.058594 29.734375 28.148438 29.589844 28.332031 C 29.445312 28.515625 29.375 28.773438 29.375 29.109375 C 29.375 29.707031 29.601562 30.007812 30.054688 30.007812 C 30.230469 30.007812 30.382812 29.988281 30.511719 29.953125 C 30.636719 29.921875 30.707031 29.898438 30.714844 29.890625 L 30.746094 29.9375 C 30.683594 29.976562 30.578125 30.011719 30.433594 30.039062 C 30.285156 30.066406 30.15625 30.082031 30.035156 30.082031 C 29.917969 30.082031 29.8125 30.070312 29.714844 30.042969 C 29.621094 30.019531 29.523438 29.976562 29.425781 29.910156 C 29.328125 29.847656 29.25 29.75 29.191406 29.613281 C 29.136719 29.476562 29.105469 29.308594 29.105469 29.113281 C 29.105469 28.753906 29.199219 28.480469 29.382812 28.296875 C 29.589844 28.085938 29.847656 27.976562 30.160156 27.976562 C 30.257812 27.976562 30.363281 27.992188 30.476562 28.015625 C 30.585938 28.042969 30.671875 28.085938 30.734375 28.140625 L 30.734375 28.679688 L 30.65625 28.710938 L 30.632812 28.277344 C 30.574219 28.210938 30.5 28.160156 30.414062 28.117188 C 30.328125 28.078125 30.242188 28.058594 30.15625 28.058594 Z M 31.859375 30.0625 L 31.03125 30.070312 L 31.039062 30.011719 L 31.25 29.980469 C 31.277344 29.980469 31.289062 29.960938 31.289062 29.925781 L 31.289062 28.136719 C 31.28125 28.113281 31.273438 28.101562 31.261719 28.101562 L 31.011719 28.09375 L 31.015625 28.035156 C 31.191406 28.011719 31.304688 28 31.367188 28 C 31.476562 28 31.539062 28.046875 31.550781 28.144531 L 31.554688 28.144531 L 31.554688 28.230469 C 31.78125 28.074219 31.996094 27.996094 32.203125 27.988281 C 32.402344 27.988281 32.554688 28.027344 32.660156 28.105469 C 32.707031 28.140625 32.746094 28.199219 32.785156 28.273438 C 32.820312 28.347656 32.839844 28.441406 32.839844 28.542969 L 32.839844 29.980469 L 33.148438 30.003906 C 33.148438 30.003906 33.148438 30.027344 33.144531 30.0625 L 32.320312 30.070312 C 32.320312 30.042969 32.324219 30.023438 32.324219 30.011719 L 32.539062 29.980469 C 32.5625 29.980469 32.574219 29.960938 32.574219 29.925781 L 32.574219 28.648438 C 32.574219 28.539062 32.558594 28.445312 32.527344 28.367188 C 32.5 28.289062 32.46875 28.234375 32.433594 28.195312 C 32.398438 28.160156 32.351562 28.132812 32.300781 28.113281 C 32.242188 28.09375 32.175781 28.082031 32.113281 28.082031 C 31.945312 28.085938 31.761719 28.148438 31.554688 28.277344 L 31.554688 29.980469 L 31.863281 30.003906 C 31.863281 30.003906 31.863281 30.027344 31.859375 30.0625 Z M 34.316406 30.082031 C 34.027344 30.082031 33.796875 30 33.621094 29.832031 C 33.441406 29.667969 33.355469 29.414062 33.355469 29.074219 C 33.355469 28.734375 33.449219 28.46875 33.636719 28.273438 C 33.824219 28.078125 34.058594 27.980469 34.34375 27.980469 C 34.628906 27.980469 34.863281 28.066406 35.039062 28.230469 C 35.21875 28.394531 35.308594 28.648438 35.308594 28.988281 C 35.308594 29.328125 35.214844 29.59375 35.027344 29.789062 C 34.839844 29.984375 34.601562 30.082031 34.316406 30.082031 Z M 34.339844 28.058594 C 34.136719 28.058594 33.964844 28.144531 33.828125 28.324219 C 33.691406 28.503906 33.621094 28.746094 33.621094 29.054688 C 33.621094 29.359375 33.6875 29.597656 33.816406 29.761719 C 33.945312 29.925781 34.113281 30.007812 34.320312 30.007812 C 34.527344 30.007812 34.699219 29.917969 34.835938 29.738281 C 34.972656 29.558594 35.039062 29.316406 35.039062 29.011719 C 35.039062 28.707031 34.976562 28.46875 34.847656 28.304688 C 34.714844 28.140625 34.546875 28.058594 34.339844 28.058594 Z M 36.425781 30.0625 L 35.597656 30.070312 L 35.601562 30.011719 L 35.816406 29.980469 C 35.832031 29.980469 35.847656 29.964844 35.851562 29.941406 L 35.851562 27.113281 C 35.851562 27.085938 35.84375 27.070312 35.828125 27.070312 L 35.574219 27.0625 L 35.582031 27.003906 C 35.753906 26.980469 35.871094 26.964844 35.9375 26.964844 C 36 26.964844 36.046875 26.984375 36.074219 27.019531 C 36.105469 27.054688 36.121094 27.09375 36.121094 27.136719 L 36.121094 29.980469 L 36.429688 30.003906 C 36.429688 30.003906 36.425781 30.027344 36.425781 30.0625 Z M 37.738281 30.082031 C 37.453125 30.082031 37.21875 30 37.042969 29.832031 C 36.867188 29.667969 36.777344 29.414062 36.777344 29.074219 C 36.777344 28.734375 36.871094 28.46875 37.058594 28.273438 C 37.246094 28.078125 37.484375 27.980469 37.769531 27.980469 C 38.054688 27.980469 38.285156 28.066406 38.464844 28.230469 C 38.644531 28.394531 38.734375 28.648438 38.734375 28.988281 C 38.734375 29.328125 38.640625 29.59375 38.449219 29.789062 C 38.261719 29.984375 38.027344 30.082031 37.738281 30.082031 Z M 37.765625 28.058594 C 37.558594 28.058594 37.386719 28.144531 37.25 28.324219 C 37.113281 28.503906 37.046875 28.746094 37.046875 29.054688 C 37.046875 29.359375 37.109375 29.597656 37.242188 29.761719 C 37.371094 29.925781 37.539062 30.007812 37.746094 30.007812 C 37.949219 30.007812 38.121094 29.917969 38.257812 29.738281 C 38.398438 29.558594 38.464844 29.316406 38.464844 29.011719 C 38.464844 28.707031 38.398438 28.46875 38.269531 28.304688 C 38.140625 28.140625 37.972656 28.058594 37.765625 28.058594 Z M 38.902344 30.488281 C 38.902344 30.230469 39.058594 30.007812 39.371094 29.824219 C 39.234375 29.75 39.167969 29.65625 39.167969 29.542969 C 39.167969 29.425781 39.222656 29.339844 39.332031 29.273438 C 39.121094 29.179688 39.011719 28.976562 39.011719 28.664062 C 39.011719 28.453125 39.09375 28.285156 39.25 28.164062 C 39.410156 28.042969 39.613281 27.980469 39.859375 27.980469 C 39.976562 27.980469 40.085938 27.996094 40.1875 28.023438 L 40.878906 27.980469 L 40.867188 28.140625 L 40.378906 28.109375 C 40.558594 28.226562 40.648438 28.402344 40.648438 28.636719 C 40.648438 28.867188 40.570312 29.046875 40.421875 29.171875 C 40.269531 29.296875 40.074219 29.359375 39.835938 29.359375 C 39.675781 29.359375 39.546875 29.34375 39.445312 29.316406 C 39.398438 29.367188 39.375 29.429688 39.375 29.5 C 39.375 29.621094 39.425781 29.710938 39.523438 29.765625 C 39.628906 29.832031 39.820312 29.886719 40.089844 29.933594 C 40.152344 29.941406 40.199219 29.953125 40.226562 29.957031 C 40.257812 29.964844 40.300781 29.976562 40.355469 29.984375 C 40.410156 29.996094 40.449219 30.007812 40.476562 30.015625 C 40.503906 30.027344 40.539062 30.039062 40.582031 30.058594 C 40.625 30.074219 40.65625 30.09375 40.679688 30.109375 C 40.703125 30.125 40.726562 30.148438 40.753906 30.171875 C 40.78125 30.195312 40.800781 30.222656 40.816406 30.253906 C 40.84375 30.324219 40.859375 30.410156 40.859375 30.503906 C 40.859375 30.597656 40.832031 30.6875 40.773438 30.773438 C 40.714844 30.859375 40.636719 30.925781 40.535156 30.96875 C 40.339844 31.054688 40.113281 31.097656 39.855469 31.097656 C 39.519531 31.097656 39.273438 31.039062 39.125 30.917969 C 38.976562 30.796875 38.902344 30.65625 38.902344 30.488281 Z M 39.4375 29.859375 C 39.257812 30.054688 39.167969 30.246094 39.167969 30.433594 C 39.167969 30.621094 39.222656 30.765625 39.332031 30.867188 C 39.441406 30.972656 39.605469 31.023438 39.828125 31.023438 C 40.050781 31.023438 40.234375 30.980469 40.375 30.894531 C 40.519531 30.808594 40.59375 30.671875 40.59375 30.484375 C 40.59375 30.335938 40.546875 30.226562 40.453125 30.160156 C 40.363281 30.089844 40.234375 30.039062 40.066406 30.007812 C 39.730469 29.941406 39.519531 29.894531 39.4375 29.859375 Z M 39.847656 28.035156 C 39.675781 28.035156 39.539062 28.089844 39.4375 28.195312 C 39.332031 28.300781 39.28125 28.460938 39.28125 28.671875 C 39.28125 28.882812 39.320312 29.042969 39.398438 29.148438 C 39.480469 29.25 39.609375 29.304688 39.789062 29.304688 C 39.96875 29.304688 40.109375 29.246094 40.210938 29.125 C 40.316406 29.003906 40.367188 28.84375 40.367188 28.640625 C 40.367188 28.238281 40.195312 28.035156 39.847656 28.035156 Z M 41.664062 28.167969 L 41.664062 29.980469 L 41.972656 30.003906 C 41.972656 30.003906 41.96875 30.027344 41.96875 30.0625 L 41.144531 30.070312 C 41.144531 30.042969 41.144531 30.023438 41.148438 30.011719 L 41.363281 29.980469 C 41.378906 29.980469 41.390625 29.96875 41.394531 29.945312 L 41.394531 28.132812 C 41.390625 28.113281 41.382812 28.101562 41.371094 28.101562 L 41.125 28.09375 L 41.128906 28.035156 C 41.277344 28.011719 41.386719 28 41.464844 28 C 41.542969 28 41.59375 28.015625 41.621094 28.050781 C 41.648438 28.089844 41.664062 28.128906 41.664062 28.167969 Z M 41.523438 27.445312 C 41.46875 27.445312 41.425781 27.429688 41.394531 27.394531 C 41.363281 27.359375 41.351562 27.3125 41.351562 27.257812 C 41.351562 27.199219 41.367188 27.15625 41.398438 27.121094 C 41.429688 27.085938 41.472656 27.070312 41.527344 27.070312 C 41.582031 27.070312 41.625 27.085938 41.660156 27.121094 C 41.695312 27.15625 41.710938 27.203125 41.710938 27.261719 C 41.710938 27.320312 41.695312 27.367188 41.660156 27.398438 C 41.621094 27.429688 41.578125 27.445312 41.523438 27.445312 Z M 43.617188 29.90625 L 43.605469 29.90625 C 43.359375 30.023438 43.117188 30.082031 42.886719 30.082031 C 42.519531 30.082031 42.328125 29.9375 42.304688 29.648438 C 42.300781 29.628906 42.300781 29.609375 42.300781 29.59375 C 42.300781 29.382812 42.4375 29.238281 42.714844 29.167969 C 42.878906 29.132812 43.175781 29.089844 43.605469 29.039062 L 43.605469 28.675781 C 43.605469 28.5625 43.589844 28.460938 43.5625 28.378906 C 43.535156 28.296875 43.507812 28.234375 43.472656 28.195312 C 43.441406 28.15625 43.398438 28.125 43.347656 28.101562 C 43.28125 28.074219 43.207031 28.0625 43.125 28.0625 C 43.042969 28.0625 42.953125 28.082031 42.847656 28.121094 C 42.695312 28.1875 42.5625 28.265625 42.445312 28.363281 L 42.429688 28.683594 L 42.351562 28.707031 L 42.351562 28.207031 L 42.390625 28.1875 C 42.605469 28.09375 42.769531 28.039062 42.878906 28.019531 C 42.992188 28 43.074219 27.988281 43.128906 27.988281 C 43.179688 27.988281 43.230469 27.988281 43.277344 27.992188 C 43.324219 27.992188 43.386719 28.003906 43.464844 28.027344 C 43.542969 28.050781 43.609375 28.082031 43.664062 28.121094 C 43.722656 28.160156 43.769531 28.21875 43.8125 28.300781 C 43.851562 28.378906 43.871094 28.476562 43.871094 28.585938 L 43.871094 29.847656 C 43.871094 29.933594 43.894531 29.976562 43.9375 29.976562 L 44.191406 29.988281 L 44.183594 30.050781 C 44.03125 30.074219 43.894531 30.085938 43.773438 30.085938 C 43.742188 30.082031 43.707031 30.066406 43.671875 30.03125 C 43.636719 30 43.617188 29.960938 43.617188 29.90625 Z M 42.957031 30.015625 C 43.160156 30.015625 43.378906 29.941406 43.605469 29.800781 L 43.605469 29.117188 C 43.195312 29.132812 42.933594 29.15625 42.828125 29.191406 C 42.722656 29.226562 42.652344 29.277344 42.609375 29.351562 C 42.570312 29.425781 42.550781 29.496094 42.550781 29.570312 C 42.550781 29.582031 42.550781 29.597656 42.550781 29.609375 C 42.558594 29.753906 42.601562 29.855469 42.679688 29.917969 C 42.753906 29.984375 42.847656 30.015625 42.957031 30.015625 Z M 47.066406 29.90625 L 47.054688 29.90625 C 46.808594 30.023438 46.566406 30.082031 46.332031 30.082031 C 45.96875 30.082031 45.773438 29.9375 45.753906 29.648438 C 45.75 29.628906 45.75 29.609375 45.75 29.59375 C 45.75 29.382812 45.886719 29.238281 46.164062 29.167969 C 46.328125 29.132812 46.625 29.089844 47.054688 29.039062 L 47.054688 28.675781 C 47.054688 28.5625 47.039062 28.460938 47.011719 28.378906 C 46.984375 28.296875 46.953125 28.234375 46.921875 28.195312 C 46.886719 28.15625 46.847656 28.125 46.792969 28.101562 C 46.726562 28.074219 46.65625 28.0625 46.574219 28.0625 C 46.492188 28.0625 46.398438 28.082031 46.296875 28.121094 C 46.144531 28.1875 46.011719 28.265625 45.894531 28.363281 L 45.875 28.683594 L 45.796875 28.707031 L 45.796875 28.207031 L 45.839844 28.1875 C 46.054688 28.09375 46.214844 28.039062 46.328125 28.019531 C 46.441406 28 46.523438 27.988281 46.574219 27.988281 C 46.628906 27.988281 46.679688 27.988281 46.726562 27.992188 C 46.773438 27.992188 46.835938 28.003906 46.914062 28.027344 C 46.988281 28.050781 47.058594 28.082031 47.113281 28.121094 C 47.167969 28.160156 47.21875 28.21875 47.261719 28.300781 C 47.300781 28.378906 47.320312 28.476562 47.320312 28.585938 L 47.320312 29.847656 C 47.320312 29.933594 47.34375 29.976562 47.386719 29.976562 L 47.636719 29.988281 L 47.632812 30.050781 C 47.480469 30.074219 47.34375 30.085938 47.222656 30.085938 C 47.1875 30.082031 47.15625 30.066406 47.117188 30.03125 C 47.082031 30 47.066406 29.960938 47.066406 29.90625 Z M 46.40625 30.015625 C 46.609375 30.015625 46.824219 29.941406 47.054688 29.800781 L 47.054688 29.117188 C 46.640625 29.132812 46.382812 29.15625 46.277344 29.191406 C 46.171875 29.226562 46.097656 29.277344 46.058594 29.351562 C 46.019531 29.425781 46 29.496094 46 29.570312 C 46 29.582031 46 29.597656 46 29.609375 C 46.007812 29.753906 46.050781 29.855469 46.128906 29.917969 C 46.203125 29.984375 46.296875 30.015625 46.40625 30.015625 Z M 50.136719 29.984375 L 50.296875 29.976562 L 50.308594 30.019531 C 50.304688 30.019531 50.285156 30.023438 50.25 30.03125 C 50.167969 30.050781 50.078125 30.058594 49.976562 30.058594 C 49.882812 30.054688 49.796875 30.039062 49.71875 30.011719 C 49.644531 29.988281 49.570312 29.929688 49.507812 29.847656 C 49.441406 29.761719 49.40625 29.65625 49.40625 29.523438 L 49.40625 28.074219 L 49.199219 28.074219 L 49.230469 28.039062 L 49.410156 28.003906 L 49.445312 27.605469 L 49.675781 27.585938 L 49.675781 28 L 50.171875 28 L 50.171875 28.074219 L 49.675781 28.074219 L 49.675781 29.453125 C 49.675781 29.664062 49.71875 29.804688 49.808594 29.875 C 49.894531 29.949219 50.003906 29.984375 50.136719 29.984375 Z M 50.816406 28.085938 L 50.601562 28.066406 L 50.597656 28.003906 L 51.152344 28 L 51.152344 29.4375 C 51.152344 29.542969 51.167969 29.636719 51.199219 29.714844 C 51.226562 29.792969 51.261719 29.851562 51.296875 29.886719 C 51.335938 29.921875 51.378906 29.949219 51.429688 29.96875 C 51.503906 29.996094 51.570312 30.007812 51.621094 30.003906 C 51.789062 30 51.980469 29.914062 52.195312 29.742188 L 52.195312 28.144531 C 52.183594 28.109375 52.160156 28.089844 52.125 28.085938 L 51.910156 28.066406 C 51.90625 28.046875 51.90625 28.027344 51.90625 28.003906 L 52.460938 28 L 52.460938 29.875 C 52.46875 29.941406 52.488281 29.976562 52.527344 29.976562 L 52.773438 29.988281 L 52.769531 30.050781 C 52.636719 30.074219 52.5 30.085938 52.359375 30.085938 C 52.324219 30.082031 52.289062 30.0625 52.25 30.027344 C 52.214844 29.996094 52.195312 29.953125 52.195312 29.898438 L 52.195312 29.824219 C 51.945312 29.992188 51.707031 30.078125 51.484375 30.078125 C 51.394531 30.078125 51.28125 30.054688 51.15625 30.007812 C 51.074219 29.976562 51.007812 29.917969 50.960938 29.835938 C 50.910156 29.75 50.886719 29.644531 50.886719 29.519531 L 50.886719 28.148438 C 50.886719 28.132812 50.878906 28.121094 50.863281 28.109375 C 50.847656 28.097656 50.832031 28.089844 50.816406 28.085938 Z M 53.667969 30.015625 C 53.683594 30.015625 53.699219 30.011719 53.714844 30.011719 C 53.859375 30.007812 53.976562 29.964844 54.074219 29.875 C 54.171875 29.789062 54.21875 29.664062 54.21875 29.496094 C 54.21875 29.328125 54.089844 29.210938 53.832031 29.136719 C 53.722656 29.105469 53.617188 29.070312 53.511719 29.035156 C 53.402344 29 53.3125 28.945312 53.238281 28.867188 C 53.160156 28.789062 53.125 28.6875 53.125 28.566406 C 53.125 28.386719 53.191406 28.246094 53.324219 28.140625 C 53.460938 28.035156 53.628906 27.980469 53.835938 27.980469 C 53.988281 27.980469 54.144531 28.011719 54.300781 28.066406 L 54.375 28.09375 L 54.375 28.570312 L 54.296875 28.597656 L 54.28125 28.246094 C 54.121094 28.121094 53.988281 28.058594 53.878906 28.058594 C 53.730469 28.058594 53.609375 28.101562 53.523438 28.191406 C 53.433594 28.28125 53.390625 28.398438 53.390625 28.546875 C 53.390625 28.632812 53.429688 28.703125 53.503906 28.753906 C 53.578125 28.808594 53.671875 28.847656 53.777344 28.878906 C 53.882812 28.910156 53.992188 28.941406 54.097656 28.980469 C 54.207031 29.015625 54.296875 29.078125 54.371094 29.160156 C 54.449219 29.246094 54.484375 29.355469 54.484375 29.488281 C 54.484375 29.671875 54.417969 29.816406 54.28125 29.921875 C 54.144531 30.027344 53.953125 30.082031 53.703125 30.082031 C 53.453125 30.082031 53.246094 30.023438 53.082031 29.902344 L 53.082031 29.429688 L 53.15625 29.398438 L 53.175781 29.75 C 53.214844 29.820312 53.285156 29.882812 53.386719 29.9375 C 53.484375 29.988281 53.578125 30.015625 53.667969 30.015625 Z M 57.160156 28.078125 C 56.996094 28.082031 56.816406 28.140625 56.625 28.257812 L 56.625 29.980469 L 56.933594 30.003906 C 56.933594 30.003906 56.933594 30.027344 56.929688 30.0625 L 56.105469 30.070312 C 56.105469 30.042969 56.109375 30.023438 56.109375 30.011719 L 56.324219 29.980469 C 56.339844 29.980469 56.351562 29.96875 56.359375 29.945312 L 56.359375 28.132812 C 56.351562 28.113281 56.34375 28.101562 56.332031 28.101562 L 56.085938 28.09375 L 56.089844 28.035156 C 56.238281 28.011719 56.351562 28 56.429688 28 C 56.503906 28 56.558594 28.015625 56.585938 28.050781 C 56.613281 28.089844 56.625 28.128906 56.625 28.167969 L 56.625 28.21875 C 56.851562 28.074219 57.0625 27.996094 57.25 27.988281 C 57.511719 27.988281 57.6875 28.0625 57.78125 28.210938 C 58.019531 28.070312 58.246094 27.996094 58.457031 27.988281 C 58.648438 27.988281 58.792969 28.027344 58.894531 28.105469 C 58.941406 28.140625 58.980469 28.199219 59.015625 28.273438 C 59.050781 28.347656 59.066406 28.441406 59.066406 28.542969 L 59.066406 29.980469 L 59.375 30.003906 C 59.375 30.003906 59.375 30.027344 59.371094 30.0625 L 58.546875 30.070312 C 58.546875 30.042969 58.550781 30.023438 58.550781 30.011719 L 58.765625 29.980469 C 58.78125 29.980469 58.792969 29.96875 58.796875 29.945312 L 58.796875 28.648438 C 58.796875 28.539062 58.785156 28.441406 58.757812 28.363281 C 58.730469 28.285156 58.699219 28.230469 58.667969 28.191406 C 58.632812 28.15625 58.59375 28.128906 58.542969 28.109375 C 58.488281 28.089844 58.429688 28.078125 58.367188 28.078125 C 58.195312 28.082031 58.011719 28.144531 57.8125 28.273438 C 57.847656 28.347656 57.863281 28.441406 57.863281 28.542969 L 57.863281 29.980469 L 58.171875 30.003906 C 58.171875 30.003906 58.171875 30.027344 58.167969 30.0625 L 57.34375 30.070312 L 57.347656 30.011719 L 57.558594 29.980469 C 57.578125 29.980469 57.589844 29.964844 57.597656 29.941406 L 57.597656 28.644531 C 57.597656 28.507812 57.578125 28.398438 57.542969 28.308594 C 57.507812 28.222656 57.460938 28.167969 57.398438 28.140625 C 57.316406 28.097656 57.238281 28.078125 57.160156 28.078125 Z M 60.9375 29.90625 L 60.925781 29.90625 C 60.679688 30.023438 60.441406 30.082031 60.207031 30.082031 C 59.839844 30.082031 59.648438 29.9375 59.625 29.648438 C 59.625 29.628906 59.621094 29.609375 59.621094 29.59375 C 59.621094 29.382812 59.761719 29.238281 60.039062 29.167969 C 60.203125 29.132812 60.5 29.089844 60.925781 29.039062 L 60.925781 28.675781 C 60.925781 28.5625 60.914062 28.460938 60.886719 28.378906 C 60.859375 28.296875 60.828125 28.234375 60.792969 28.195312 C 60.761719 28.15625 60.71875 28.125 60.667969 28.101562 C 60.601562 28.074219 60.527344 28.0625 60.445312 28.0625 C 60.367188 28.0625 60.273438 28.082031 60.167969 28.121094 C 60.019531 28.1875 59.882812 28.265625 59.765625 28.363281 L 59.75 28.683594 L 59.671875 28.707031 L 59.671875 28.207031 L 59.710938 28.1875 C 59.925781 28.09375 60.089844 28.039062 60.203125 28.019531 C 60.316406 28 60.398438 27.988281 60.449219 27.988281 C 60.5 27.988281 60.550781 27.988281 60.597656 27.992188 C 60.648438 27.992188 60.710938 28.003906 60.785156 28.027344 C 60.863281 28.050781 60.929688 28.082031 60.984375 28.121094 C 61.042969 28.160156 61.089844 28.21875 61.132812 28.300781 C 61.171875 28.378906 61.195312 28.476562 61.195312 28.585938 L 61.195312 29.847656 C 61.195312 29.933594 61.214844 29.976562 61.261719 29.976562 L 61.511719 29.988281 L 61.507812 30.050781 C 61.351562 30.074219 61.214844 30.085938 61.09375 30.085938 C 61.0625 30.082031 61.027344 30.066406 60.992188 30.03125 C 60.957031 30 60.9375 29.960938 60.9375 29.90625 Z M 60.28125 30.015625 C 60.484375 30.015625 60.699219 29.941406 60.925781 29.800781 L 60.925781 29.117188 C 60.515625 29.132812 60.257812 29.15625 60.148438 29.191406 C 60.046875 29.226562 59.972656 29.277344 59.933594 29.351562 C 59.894531 29.425781 59.871094 29.496094 59.871094 29.570312 C 59.871094 29.582031 59.871094 29.597656 59.871094 29.609375 C 59.882812 29.753906 59.921875 29.855469 60 29.917969 C 60.078125 29.984375 60.171875 30.015625 60.28125 30.015625 Z M 62.480469 30.0625 L 61.652344 30.070312 L 61.660156 30.011719 L 61.871094 29.980469 C 61.898438 29.980469 61.910156 29.960938 61.910156 29.925781 L 61.910156 28.136719 C 61.902344 28.113281 61.894531 28.101562 61.886719 28.101562 L 61.632812 28.09375 L 61.636719 28.035156 C 61.8125 28.011719 61.925781 28 61.988281 28 C 62.097656 28 62.160156 28.046875 62.171875 28.144531 L 62.175781 28.144531 L 62.175781 28.230469 C 62.402344 28.074219 62.617188 27.996094 62.824219 27.988281 C 63.023438 27.988281 63.175781 28.027344 63.28125 28.105469 C 63.328125 28.140625 63.367188 28.199219 63.40625 28.273438 C 63.441406 28.347656 63.460938 28.441406 63.460938 28.542969 L 63.460938 29.980469 L 63.769531 30.003906 C 63.769531 30.003906 63.769531 30.027344 63.765625 30.0625 L 62.941406 30.070312 C 62.941406 30.042969 62.945312 30.023438 62.945312 30.011719 L 63.160156 29.980469 C 63.183594 29.980469 63.195312 29.960938 63.195312 29.925781 L 63.195312 28.648438 C 63.195312 28.539062 63.179688 28.445312 63.152344 28.367188 C 63.121094 28.289062 63.089844 28.234375 63.054688 28.195312 C 63.019531 28.160156 62.972656 28.132812 62.921875 28.113281 C 62.863281 28.09375 62.796875 28.082031 62.734375 28.082031 C 62.566406 28.085938 62.382812 28.148438 62.175781 28.277344 L 62.175781 29.980469 L 62.484375 30.003906 C 62.484375 30.003906 62.484375 30.027344 62.480469 30.0625 Z M 64.9375 30.082031 C 64.648438 30.082031 64.417969 30 64.242188 29.832031 C 64.0625 29.667969 63.976562 29.414062 63.976562 29.074219 C 63.976562 28.734375 64.070312 28.46875 64.257812 28.273438 C 64.445312 28.078125 64.683594 27.980469 64.96875 27.980469 C 65.253906 27.980469 65.484375 28.066406 65.664062 28.230469 C 65.839844 28.394531 65.929688 28.648438 65.929688 28.988281 C 65.929688 29.328125 65.835938 29.59375 65.648438 29.789062 C 65.460938 29.984375 65.222656 30.082031 64.9375 30.082031 Z M 64.964844 28.058594 C 64.757812 28.058594 64.585938 28.144531 64.449219 28.324219 C 64.3125 28.503906 64.242188 28.746094 64.242188 29.054688 C 64.242188 29.359375 64.308594 29.597656 64.4375 29.761719 C 64.570312 29.925781 64.738281 30.007812 64.941406 30.007812 C 65.148438 30.007812 65.320312 29.917969 65.457031 29.738281 C 65.59375 29.558594 65.664062 29.316406 65.664062 29.011719 C 65.664062 28.707031 65.597656 28.46875 65.46875 28.304688 C 65.335938 28.140625 65.167969 28.058594 64.964844 28.058594 Z M 66.863281 30.015625 C 66.882812 30.015625 66.898438 30.011719 66.914062 30.011719 C 67.058594 30.007812 67.175781 29.964844 67.273438 29.875 C 67.367188 29.789062 67.417969 29.664062 67.417969 29.496094 C 67.417969 29.328125 67.289062 29.210938 67.03125 29.136719 C 66.921875 29.105469 66.816406 29.070312 66.707031 29.035156 C 66.601562 29 66.511719 28.945312 66.433594 28.867188 C 66.359375 28.789062 66.320312 28.6875 66.320312 28.566406 C 66.320312 28.386719 66.390625 28.246094 66.523438 28.140625 C 66.65625 28.035156 66.828125 27.980469 67.035156 27.980469 C 67.1875 27.980469 67.34375 28.011719 67.5 28.066406 L 67.574219 28.09375 L 67.574219 28.570312 L 67.496094 28.597656 L 67.476562 28.246094 C 67.320312 28.121094 67.1875 28.058594 67.078125 28.058594 C 66.929688 28.058594 66.808594 28.101562 66.722656 28.191406 C 66.632812 28.28125 66.589844 28.398438 66.589844 28.546875 C 66.589844 28.632812 66.625 28.703125 66.703125 28.753906 C 66.777344 28.808594 66.867188 28.847656 66.976562 28.878906 C 67.082031 28.910156 67.191406 28.941406 67.296875 28.980469 C 67.402344 29.015625 67.496094 29.078125 67.570312 29.160156 C 67.644531 29.246094 67.683594 29.355469 67.683594 29.488281 C 67.683594 29.671875 67.617188 29.816406 67.480469 29.921875 C 67.34375 30.027344 67.152344 30.082031 66.902344 30.082031 C 66.652344 30.082031 66.445312 30.023438 66.28125 29.902344 L 66.28125 29.429688 L 66.355469 29.398438 L 66.375 29.75 C 66.414062 29.820312 66.484375 29.882812 66.582031 29.9375 C 66.683594 29.988281 66.777344 30.015625 66.863281 30.015625 Z M 66.863281 30.015625 "/>
</g>
<g clip-path="url(#clip3)" clip-rule="nonzero">
<path style=" stroke:none;fill-rule:nonzero;fill:rgb(87.058824%,87.058824%,87.058824%);fill-opacity:1;" d="M 47.554688 7.4375 C 47.472656 7.4375 47.390625 7.398438 47.34375 7.320312 C 47.273438 7.203125 47.308594 7.050781 47.425781 6.980469 C 47.5 6.933594 47.539062 6.882812 47.550781 6.808594 C 47.59375 6.574219 47.371094 6.214844 47.292969 6.109375 L 47.222656 6.019531 L 47.246094 5.90625 C 47.527344 4.5625 46.734375 2.636719 46.726562 2.617188 C 46.429688 1.980469 46.339844 1.402344 46.320312 0.996094 C 46.128906 2.617188 45.53125 3.265625 45.507812 3.292969 L 45.488281 3.3125 C 44.292969 4.332031 44.664062 5.710938 44.667969 5.722656 C 44.707031 5.855469 44.628906 5.992188 44.496094 6.03125 C 44.367188 6.066406 44.230469 5.988281 44.191406 5.859375 C 44.171875 5.789062 43.738281 4.167969 45.152344 2.945312 C 45.214844 2.875 45.699219 2.25 45.847656 0.796875 L 45.851562 0.753906 L 45.867188 0.71875 C 45.953125 0.527344 46.203125 0.207031 46.589844 0.207031 L 46.886719 0.207031 L 46.835938 0.5 C 46.832031 0.507812 46.691406 1.375 47.179688 2.417969 C 47.21875 2.507812 48.003906 4.421875 47.75 5.898438 C 47.875 6.085938 48.109375 6.507812 48.039062 6.898438 C 48 7.109375 47.875 7.285156 47.683594 7.402344 C 47.644531 7.425781 47.597656 7.4375 47.554688 7.4375 Z M 47.554688 7.4375 "/>
</g>
<g clip-path="url(#clip4)" clip-rule="nonzero">
<path style=" stroke:none;fill-rule:nonzero;fill:rgb(87.058824%,87.058824%,87.058824%);fill-opacity:1;" d="M 45.085938 17.125 L 45.019531 16.851562 C 44.515625 14.703125 42.628906 13.359375 42.609375 13.347656 C 42.5 13.269531 42.472656 13.113281 42.550781 13.003906 C 42.628906 12.890625 42.78125 12.863281 42.894531 12.941406 C 42.972656 12.996094 44.800781 14.296875 45.429688 16.46875 L 51.707031 14.140625 C 51.417969 13.117188 50.054688 8.726562 47.613281 6.734375 C 47.507812 6.648438 47.492188 6.492188 47.578125 6.382812 C 47.664062 6.277344 47.820312 6.261719 47.925781 6.347656 C 50.8125 8.707031 52.191406 14.007812 52.246094 14.234375 L 52.300781 14.449219 Z M 45.085938 17.125 "/>
</g>
<path style=" stroke:none;fill-rule:nonzero;fill:rgb(87.058824%,87.058824%,87.058824%);fill-opacity:1;" d="M 39.714844 15.078125 C 39.472656 15.078125 39.234375 15.03125 39 14.941406 C 36.988281 14.164062 36.167969 10.207031 36.132812 10.039062 C 36.105469 9.90625 36.191406 9.773438 36.324219 9.746094 C 36.460938 9.71875 36.589844 9.804688 36.617188 9.941406 C 36.625 9.980469 37.417969 13.796875 39.179688 14.476562 C 39.746094 14.699219 40.351562 14.5625 41.027344 14.0625 C 41.058594 14.039062 43.195312 12.617188 44.359375 11.511719 C 44.460938 11.417969 44.617188 11.421875 44.710938 11.523438 C 44.804688 11.621094 44.800781 11.78125 44.699219 11.875 C 43.503906 13.007812 41.398438 14.410156 41.308594 14.46875 C 40.765625 14.871094 40.230469 15.078125 39.714844 15.078125 Z M 39.714844 15.078125 "/>
<g clip-path="url(#clip5)" clip-rule="nonzero">
<path style=" stroke:none;fill-rule:nonzero;fill:rgb(87.058824%,87.058824%,87.058824%);fill-opacity:1;" d="M 37.035156 13.730469 C 36.816406 13.730469 36.652344 13.65625 36.535156 13.570312 C 35.621094 12.890625 36.035156 10.191406 36.085938 9.886719 C 36.105469 9.75 36.234375 9.660156 36.367188 9.683594 C 36.503906 9.707031 36.59375 9.832031 36.574219 9.96875 C 36.402344 11.007812 36.320312 12.792969 36.828125 13.171875 C 36.878906 13.207031 37.03125 13.320312 37.425781 13.121094 C 37.546875 13.0625 37.695312 13.109375 37.757812 13.234375 C 37.816406 13.355469 37.769531 13.503906 37.644531 13.566406 C 37.40625 13.6875 37.203125 13.730469 37.035156 13.730469 Z M 37.035156 13.730469 "/>
</g>
<path style=" stroke:none;fill-rule:nonzero;fill:rgb(87.058824%,87.058824%,87.058824%);fill-opacity:1;" d="M 37.886719 14.320312 C 37.644531 14.320312 37.207031 14.230469 36.886719 13.648438 C 36.820312 13.527344 36.863281 13.375 36.984375 13.308594 C 37.105469 13.242188 37.253906 13.289062 37.320312 13.410156 C 37.578125 13.878906 37.90625 13.828125 37.945312 13.820312 C 38.078125 13.792969 38.210938 13.875 38.238281 14.007812 C 38.269531 14.136719 38.191406 14.269531 38.058594 14.300781 C 38.050781 14.304688 37.984375 14.320312 37.886719 14.320312 Z M 37.886719 14.320312 "/>
<g clip-path="url(#clip6)" clip-rule="nonzero">
<path style=" stroke:none;fill-rule:nonzero;fill:rgb(87.058824%,87.058824%,87.058824%);fill-opacity:1;" d="M 37.210938 10.300781 C 37.113281 10.300781 36.984375 10.265625 36.871094 10.191406 C 36.667969 10.300781 36.390625 10.226562 35.992188 9.914062 C 35.625 9.625 35.574219 9.332031 35.59375 9.136719 C 35.65625 8.574219 36.367188 8.210938 36.445312 8.167969 L 36.527344 8.128906 L 36.617188 8.152344 C 37.175781 8.292969 37.445312 8.796875 37.496094 8.90625 C 37.765625 9.339844 37.769531 9.574219 37.765625 9.636719 L 37.761719 9.6875 L 37.738281 9.730469 C 37.441406 10.300781 37.304688 10.300781 37.210938 10.300781 Z M 37.109375 9.753906 C 37.117188 9.761719 37.128906 9.769531 37.136719 9.773438 C 37.175781 9.722656 37.222656 9.648438 37.265625 9.566406 C 37.25 9.511719 37.207031 9.375 37.070312 9.15625 L 37.054688 9.125 C 37.050781 9.121094 36.898438 8.789062 36.582031 8.660156 C 36.390625 8.773438 36.109375 8.992188 36.085938 9.1875 C 36.078125 9.292969 36.148438 9.402344 36.300781 9.523438 C 36.429688 9.628906 36.523438 9.683594 36.582031 9.710938 C 36.574219 9.628906 36.582031 9.554688 36.636719 9.484375 L 36.710938 9.386719 L 36.941406 9.386719 L 37.058594 9.5 L 37.085938 9.566406 C 37.101562 9.59375 37.132812 9.664062 37.109375 9.753906 Z M 37.109375 9.753906 "/>
</g>
<path style=" stroke:none;fill-rule:nonzero;fill:rgb(87.058824%,87.058824%,87.058824%);fill-opacity:1;" d="M 36.652344 8.59375 C 36.542969 8.59375 36.441406 8.519531 36.414062 8.40625 C 36.378906 8.273438 36.460938 8.136719 36.59375 8.105469 C 38.257812 7.6875 39.046875 7.324219 39.292969 7.195312 C 39.378906 6.800781 39.566406 6.179688 39.574219 6.152344 L 39.59375 6.09375 L 39.632812 6.050781 C 41.179688 4.429688 44.28125 4.28125 44.410156 4.273438 C 44.542969 4.273438 44.664062 4.375 44.667969 4.511719 C 44.675781 4.648438 44.570312 4.765625 44.433594 4.769531 C 44.402344 4.773438 41.457031 4.917969 40.03125 6.355469 C 39.976562 6.535156 39.808594 7.109375 39.757812 7.402344 L 39.738281 7.511719 L 39.644531 7.570312 C 39.613281 7.589844 38.851562 8.050781 36.714844 8.585938 C 36.695312 8.589844 36.671875 8.59375 36.652344 8.59375 Z M 36.652344 8.59375 "/>
<g clip-path="url(#clip7)" clip-rule="nonzero">
<path style=" stroke:none;fill-rule:nonzero;fill:rgb(87.058824%,87.058824%,87.058824%);fill-opacity:1;" d="M 42.6875 5.003906 C 42.648438 5.003906 42.609375 4.996094 42.574219 4.980469 C 42.453125 4.917969 42.402344 4.769531 42.464844 4.644531 C 43 3.574219 42.804688 2.941406 42.800781 2.9375 C 42.554688 2.125 42.683594 0.628906 42.6875 0.566406 L 42.738281 0 L 43.117188 0.421875 C 43.804688 1.183594 43.8125 1.921875 43.8125 1.953125 C 43.8125 2.492188 44.003906 2.707031 44.011719 2.71875 C 44.625 3.40625 44.738281 4.222656 44.742188 4.257812 C 44.761719 4.394531 44.664062 4.519531 44.527344 4.535156 C 44.394531 4.550781 44.269531 4.457031 44.253906 4.324219 C 44.25 4.316406 44.152344 3.621094 43.648438 3.054688 C 43.621094 3.03125 43.320312 2.703125 43.320312 1.953125 C 43.320312 1.941406 43.3125 1.6875 43.144531 1.335938 C 43.136719 1.808594 43.15625 2.402344 43.273438 2.78125 C 43.28125 2.804688 43.546875 3.585938 42.90625 4.867188 C 42.863281 4.953125 42.777344 5.003906 42.6875 5.003906 Z M 42.6875 5.003906 "/>
</g>
<path style=" stroke:none;fill-rule:nonzero;fill:rgb(87.058824%,87.058824%,87.058824%);fill-opacity:1;" d="M 46.390625 6.207031 C 46.308594 6.207031 46.222656 6.160156 46.179688 6.082031 C 46.109375 5.964844 46.148438 5.816406 46.261719 5.746094 C 46.285156 5.730469 46.652344 5.472656 46.421875 4.730469 C 46.40625 4.675781 46.136719 3.648438 46.320312 2.988281 L 46.328125 2.964844 C 46.332031 2.953125 46.398438 2.757812 46.3125 2.464844 C 46.183594 2.730469 46.074219 3.011719 46.074219 3.15625 L 46.074219 3.269531 L 45.984375 3.34375 C 45.976562 3.355469 44.867188 4.308594 45.257812 5.226562 C 45.308594 5.351562 45.25 5.5 45.125 5.550781 C 45 5.605469 44.855469 5.546875 44.800781 5.421875 C 44.339844 4.328125 45.296875 3.3125 45.585938 3.035156 C 45.652344 2.585938 46.03125 1.929688 46.113281 1.792969 L 46.3125 1.460938 L 46.527344 1.78125 C 46.988281 2.457031 46.832031 3.019531 46.792969 3.128906 C 46.675781 3.570312 46.828125 4.332031 46.894531 4.59375 C 47.246094 5.726562 46.546875 6.152344 46.515625 6.171875 C 46.476562 6.195312 46.433594 6.207031 46.390625 6.207031 Z M 46.390625 6.207031 "/>
<path style=" stroke:none;fill-rule:nonzero;fill:rgb(87.058824%,87.058824%,87.058824%);fill-opacity:1;" d="M 41.660156 8.207031 C 41.640625 8.207031 41.617188 8.207031 41.59375 8.207031 L 41.515625 8.203125 L 41.453125 8.152344 C 41.425781 8.132812 40.820312 7.632812 41.140625 6.679688 L 41.1875 6.53125 L 41.34375 6.511719 C 41.34375 6.511719 41.394531 6.503906 41.480469 6.503906 C 41.746094 6.503906 42.414062 6.574219 42.839844 7.21875 L 42.917969 7.335938 L 42.859375 7.464844 C 42.84375 7.496094 42.5 8.207031 41.660156 8.207031 Z M 41.5625 7.003906 C 41.488281 7.378906 41.628906 7.613281 41.707031 7.710938 C 42.035156 7.691406 42.234375 7.5 42.335938 7.371094 C 42.082031 7.085938 41.757812 7.019531 41.5625 7.003906 Z M 41.5625 7.003906 "/>
<path style=" stroke:none;fill-rule:nonzero;fill:rgb(87.058824%,87.058824%,87.058824%);fill-opacity:1;" d="M 41.652344 7.957031 C 41.386719 7.957031 41.175781 7.726562 41.152344 7.402344 C 41.125 7.082031 41.3125 6.824219 41.601562 6.777344 L 41.695312 6.765625 L 41.773438 6.816406 C 41.84375 6.863281 42.191406 7.105469 42.195312 7.433594 C 42.195312 7.550781 42.152344 7.722656 41.941406 7.863281 C 41.847656 7.925781 41.75 7.957031 41.652344 7.957031 Z M 41.644531 7.347656 C 41.644531 7.386719 41.652344 7.425781 41.667969 7.449219 C 41.699219 7.429688 41.703125 7.421875 41.703125 7.421875 C 41.699219 7.410156 41.675781 7.382812 41.644531 7.347656 Z M 41.644531 7.347656 "/>
<path style=" stroke:none;fill-rule:nonzero;fill:rgb(87.058824%,87.058824%,87.058824%);fill-opacity:1;" d="M 43.5 4.804688 C 43.449219 4.804688 43.394531 4.789062 43.351562 4.753906 C 43.242188 4.671875 43.21875 4.515625 43.300781 4.40625 C 43.78125 3.765625 43.417969 3.4375 43.414062 3.433594 C 43.351562 3.386719 43.136719 3.152344 43.015625 2.402344 C 42.914062 1.785156 42.726562 1.539062 42.726562 1.535156 C 42.644531 1.429688 42.660156 1.273438 42.765625 1.1875 C 42.871094 1.101562 43.023438 1.117188 43.109375 1.21875 C 43.136719 1.253906 43.378906 1.566406 43.503906 2.324219 C 43.597656 2.902344 43.742188 3.066406 43.746094 3.066406 C 43.988281 3.277344 44.300781 3.898438 43.699219 4.703125 C 43.648438 4.769531 43.574219 4.804688 43.5 4.804688 Z M 43.5 4.804688 "/>
<g clip-path="url(#clip8)" clip-rule="nonzero">
<path style=" stroke:none;fill-rule:nonzero;fill:rgb(87.058824%,87.058824%,87.058824%);fill-opacity:1;" d="M 54.078125 16.300781 L 87.890625 16.300781 L 87.890625 16.902344 L 54.078125 16.902344 Z M 54.078125 16.300781 "/>
</g>
<path style=" stroke:none;fill-rule:nonzero;fill:rgb(87.058824%,87.058824%,87.058824%);fill-opacity:1;" d="M 0 16.300781 L 33.8125 16.300781 L 33.8125 16.902344 L 0 16.902344 Z M 0 16.300781 "/>
<g clip-path="url(#clip9)" clip-rule="nonzero">
<path style=" stroke:none;fill-rule:nonzero;fill:rgb(87.058824%,87.058824%,87.058824%);fill-opacity:1;" d="M 54.078125 15.09375 L 87.890625 15.09375 L 87.890625 15.699219 L 54.078125 15.699219 Z M 54.078125 15.09375 "/>
</g>
<path style=" stroke:none;fill-rule:nonzero;fill:rgb(87.058824%,87.058824%,87.058824%);fill-opacity:1;" d="M 0 15.09375 L 33.8125 15.09375 L 33.8125 15.699219 L 0 15.699219 Z M 0 15.09375 "/>
</g>
</svg>
